<svg xmlns="http://www.w3.org/2000/svg" version="1.1" xmlns:xlink="http://www.w3.org/1999/xlink" xmlns:svgjs="http://svgjs.dev/svgjs" viewBox="0 0 9.261258406510528 3.2607440562548846"><g transform="matrix(1,0,0,1,3.461127485854922,0.5005403741856811)"><g><path d=" M 0.10693359375 0.010986328125 L 0.296630859375 0.010986328125 L 0.296630859375 1.112548828125 L 0.55517578125 1.112548828125 L 0.55517578125 1.261962890625 L 0.10693359375 1.261962890625 L 0.10693359375 0.010986328125 M 0.9521484375 1.27294921875 Q 0.922119140625 1.27294921875 0.886962890625 1.2681884765625 Q 0.851806640625 1.263427734375 0.8173828125 1.248046875 Q 0.782958984375 1.232666015625 0.7510986328125 1.2044677734375 Q 0.71923828125 1.17626953125 0.6947021484375 1.130126953125 Q 0.670166015625 1.083984375 0.655517578125 1.0162353515625 Q 0.640869140625 0.948486328125 0.640869140625 0.854736328125 L 0.640869140625 0.41162109375 Q 0.640869140625 0.317138671875 0.6558837890625 0.2501220703125 Q 0.6708984375 0.18310546875 0.69580078125 0.1373291015625 Q 0.720703125 0.091552734375 0.7525634765625 0.064453125 Q 0.784423828125 0.037353515625 0.8192138671875 0.0230712890625 Q 0.85400390625 0.0087890625 0.888427734375 0.00439453125 Q 0.9228515625 0 0.9521484375 0 Q 0.97998046875 0 1.0140380859375 0.0040283203125 Q 1.048095703125 0.008056640625 1.0821533203125 0.0216064453125 Q 1.1162109375 0.03515625 1.1484375 0.0618896484375 Q 1.1806640625 0.088623046875 1.20556640625 0.1343994140625 Q 1.23046875 0.18017578125 1.2454833984375 0.2479248046875 Q 1.260498046875 0.315673828125 1.260498046875 0.41162109375 L 1.260498046875 0.854736328125 Q 1.260498046875 0.94775390625 1.2451171875 1.0147705078125 Q 1.229736328125 1.081787109375 1.204833984375 1.1282958984375 Q 1.179931640625 1.1748046875 1.1473388671875 1.2030029296875 Q 1.11474609375 1.231201171875 1.0806884765625 1.2469482421875 Q 1.046630859375 1.2626953125 1.012939453125 1.267822265625 Q 0.979248046875 1.27294921875 0.9521484375 1.27294921875 M 0.9521484375 1.130126953125 Q 0.97998046875 1.130126953125 1.0008544921875 1.12060546875 Q 1.021728515625 1.111083984375 1.0352783203125 1.087646484375 Q 1.048828125 1.064208984375 1.0557861328125 1.0257568359375 Q 1.062744140625 0.9873046875 1.062744140625 0.9287109375 L 1.062744140625 0.359619140625 Q 1.062744140625 0.299560546875 1.0557861328125 0.25927734375 Q 1.048828125 0.218994140625 1.0352783203125 0.1944580078125 Q 1.021728515625 0.169921875 1.0008544921875 0.15966796875 Q 0.97998046875 0.1494140625 0.9521484375 0.1494140625 Q 0.923583984375 0.1494140625 0.90234375 0.15966796875 Q 0.881103515625 0.169921875 0.8671875 0.1944580078125 Q 0.853271484375 0.218994140625 0.8463134765625 0.25927734375 Q 0.83935546875 0.299560546875 0.83935546875 0.359619140625 L 0.83935546875 0.9287109375 Q 0.83935546875 0.9873046875 0.8463134765625 1.0257568359375 Q 0.853271484375 1.064208984375 0.8671875 1.087646484375 Q 0.881103515625 1.111083984375 0.90234375 1.12060546875 Q 0.923583984375 1.130126953125 0.9521484375 1.130126953125 M 1.70947265625 1.27294921875 Q 1.68017578125 1.27294921875 1.6461181640625 1.2681884765625 Q 1.612060546875 1.263427734375 1.5780029296875 1.248046875 Q 1.5439453125 1.232666015625 1.5128173828125 1.2044677734375 Q 1.481689453125 1.17626953125 1.4578857421875 1.130126953125 Q 1.43408203125 1.083984375 1.4197998046875 1.0162353515625 Q 1.405517578125 0.948486328125 1.405517578125 0.854736328125 L 1.405517578125 0.41162109375 Q 1.405517578125 0.317138671875 1.420166015625 0.2501220703125 Q 1.434814453125 0.18310546875 1.458984375 0.1373291015625 Q 1.483154296875 0.091552734375 1.5146484375 0.064453125 Q 1.546142578125 0.037353515625 1.579833984375 0.0230712890625 Q 1.613525390625 0.0087890625 1.6468505859375 0.00439453125 Q 1.68017578125 0 1.708740234375 0 Q 1.783447265625 0 1.8336181640625 0.0208740234375 Q 1.8837890625 0.041748046875 1.9141845703125 0.0780029296875 Q 1.944580078125 0.1142578125 1.9573974609375 0.16259765625 Q 1.97021484375 0.2109375 1.97021484375 0.26513671875 Q 1.97021484375 0.305419921875 1.9661865234375 0.3394775390625 Q 1.962158203125 0.37353515625 1.9541015625 0.41455078125 L 1.80029296875 0.41455078125 L 1.80029296875 0.350830078125 Q 1.80029296875 0.24755859375 1.777587890625 0.1962890625 Q 1.7548828125 0.14501953125 1.7109375 0.14501953125 Q 1.6845703125 0.14501953125 1.664794921875 0.1552734375 Q 1.64501953125 0.16552734375 1.6318359375 0.1900634765625 Q 1.61865234375 0.214599609375 1.6116943359375 0.2548828125 Q 1.604736328125 0.295166015625 1.604736328125 0.355224609375 L 1.604736328125 0.926513671875 Q 1.604736328125 0.985107421875 1.6102294921875 1.02392578125 Q 1.61572265625 1.062744140625 1.628173828125 1.086181640625 Q 1.640625 1.109619140625 1.6607666015625 1.1195068359375 Q 1.680908203125 1.12939453125 1.70947265625 1.12939453125 Q 1.727783203125 1.12939453125 1.74462890625 1.1209716796875 Q 1.761474609375 1.112548828125 1.7742919921875 1.0946044921875 Q 1.787109375 1.07666015625 1.7947998046875 1.0491943359375 Q 1.802490234375 1.021728515625 1.802490234375 0.984375 L 1.802490234375 0.862060546875 L 1.97607421875 0.862060546875 L 1.97607421875 0.977783203125 Q 1.97607421875 1.128662109375 1.9072265625 1.200439453125 Q 1.83837890625 1.272216796875 1.70947265625 1.27294921875 M 2.26318359375 0.010986328125 L 2.4814453125 0.010986328125 L 2.712890625 1.261962890625 L 2.52099609375 1.261962890625 L 2.486572265625 1.037841796875 L 2.258056640625 1.037841796875 L 2.22509765625 1.261962890625 L 2.032470703125 1.261962890625 L 2.26318359375 0.010986328125 M 2.464599609375 0.89501953125 L 2.376708984375 0.271728515625 L 2.36865234375 0.271728515625 L 2.280029296875 0.89501953125 L 2.464599609375 0.89501953125 M 2.949462890625 0.160400390625 L 2.748046875 0.160400390625 L 2.748046875 0.010986328125 L 3.33984375 0.010986328125 L 3.33984375 0.160400390625 L 3.13916015625 0.160400390625 L 3.13916015625 1.261962890625 L 2.949462890625 1.261962890625 L 2.949462890625 0.160400390625 M 3.468017578125 0.010986328125 L 3.65771484375 0.010986328125 L 3.65771484375 1.261962890625 L 3.468017578125 1.261962890625 L 3.468017578125 0.010986328125 M 4.1484375 1.27294921875 Q 4.118408203125 1.27294921875 4.083251953125 1.2681884765625 Q 4.048095703125 1.263427734375 4.013671875 1.248046875 Q 3.979248046875 1.232666015625 3.9473876953125 1.2044677734375 Q 3.91552734375 1.17626953125 3.8909912109375 1.130126953125 Q 3.866455078125 1.083984375 3.851806640625 1.0162353515625 Q 3.837158203125 0.948486328125 3.837158203125 0.854736328125 L 3.837158203125 0.41162109375 Q 3.837158203125 0.317138671875 3.8521728515625 0.2501220703125 Q 3.8671875 0.18310546875 3.89208984375 0.1373291015625 Q 3.9169921875 0.091552734375 3.9488525390625 0.064453125 Q 3.980712890625 0.037353515625 4.0155029296875 0.0230712890625 Q 4.05029296875 0.0087890625 4.084716796875 0.00439453125 Q 4.119140625 0 4.1484375 0 Q 4.17626953125 0 4.2103271484375 0.0040283203125 Q 4.244384765625 0.008056640625 4.2784423828125 0.0216064453125 Q 4.3125 0.03515625 4.3447265625 0.0618896484375 Q 4.376953125 0.088623046875 4.40185546875 0.1343994140625 Q 4.4267578125 0.18017578125 4.4417724609375 0.2479248046875 Q 4.456787109375 0.315673828125 4.456787109375 0.41162109375 L 4.456787109375 0.854736328125 Q 4.456787109375 0.94775390625 4.44140625 1.0147705078125 Q 4.426025390625 1.081787109375 4.401123046875 1.1282958984375 Q 4.376220703125 1.1748046875 4.3436279296875 1.2030029296875 Q 4.31103515625 1.231201171875 4.2769775390625 1.2469482421875 Q 4.242919921875 1.2626953125 4.209228515625 1.267822265625 Q 4.175537109375 1.27294921875 4.1484375 1.27294921875 M 4.1484375 1.130126953125 Q 4.17626953125 1.130126953125 4.1971435546875 1.12060546875 Q 4.218017578125 1.111083984375 4.2315673828125 1.087646484375 Q 4.2451171875 1.064208984375 4.2520751953125 1.0257568359375 Q 4.259033203125 0.9873046875 4.259033203125 0.9287109375 L 4.259033203125 0.359619140625 Q 4.259033203125 0.299560546875 4.2520751953125 0.25927734375 Q 4.2451171875 0.218994140625 4.2315673828125 0.1944580078125 Q 4.218017578125 0.169921875 4.1971435546875 0.15966796875 Q 4.17626953125 0.1494140625 4.1484375 0.1494140625 Q 4.119873046875 0.1494140625 4.0986328125 0.15966796875 Q 4.077392578125 0.169921875 4.0634765625 0.1944580078125 Q 4.049560546875 0.218994140625 4.0426025390625 0.25927734375 Q 4.03564453125 0.299560546875 4.03564453125 0.359619140625 L 4.03564453125 0.9287109375 Q 4.03564453125 0.9873046875 4.0426025390625 1.0257568359375 Q 4.049560546875 1.064208984375 4.0634765625 1.087646484375 Q 4.077392578125 1.111083984375 4.0986328125 1.12060546875 Q 4.119873046875 1.130126953125 4.1484375 1.130126953125 M 4.63623046875 0.010986328125 L 4.7900390625 0.010986328125 L 5.09326171875 0.84814453125 L 5.09765625 0.84814453125 Q 5.095458984375 0.81884765625 5.091796875 0.782958984375 Q 5.088134765625 0.7470703125 5.085205078125 0.7012939453125 Q 5.082275390625 0.655517578125 5.080078125 0.59765625 Q 5.077880859375 0.539794921875 5.077880859375 0.46728515625 L 5.077880859375 0.010986328125 L 5.247802734375 0.010986328125 L 5.247802734375 1.261962890625 L 5.092529296875 1.261962890625 L 4.790771484375 0.44677734375 L 4.784912109375 0.44677734375 Q 4.787109375 0.479736328125 4.790771484375 0.5181884765625 Q 4.79443359375 0.556640625 4.79736328125 0.608642578125 Q 4.80029296875 0.66064453125 4.802490234375 0.7298583984375 Q 4.8046875 0.799072265625 4.8046875 0.894287109375 L 4.8046875 1.261962890625 L 4.63623046875 1.261962890625 L 4.63623046875 0.010986328125" fill="#000000" fill-rule="nonzero"></path></g><g><path d=" M 0.06924715909090909 1.7186698774857954 Q 0.08955522017045454 1.7186698774857954 0.08955522017045454 1.7476338334517043 Q 0.08955522017045454 1.7869182794744316 0.08905584161931818 1.8303642134232951 Q 0.08855646306818181 1.873810147372159 0.0882235440340909 1.9090995649857951 Q 0.087890625 1.9443889825994316 0.08755770596590909 1.9913305664062497 Q 0.08689186789772727 2.088875843394886 0.08622602982954544 2.2306993519176133 Q 0.15247691761363635 2.232031028053977 0.2134011008522727 2.2260384854403408 Q 0.22538618607954544 2.224706809303977 0.23204456676136362 2.231032270951704 Q 0.2387029474431818 2.2373577325994316 0.2387029474431818 2.2443490323153408 Q 0.2387029474431818 2.2513403320312495 0.23271040482954544 2.2565005770596587 Q 0.22671786221590906 2.261660822088068 0.21506569602272727 2.260994984019886 Q 0.17711292613636362 2.257998712713068 0.1333340731534091 2.2596633078835224 Q 0.08955522017045454 2.261327903053977 0.08056640625 2.2626595791903408 Q 0.07157759232954546 2.263991255326704 0.06741610440340909 2.263158957741477 Q 0.06325461647727272 2.2623266601562495 0.05992542613636363 2.2596633078835224 Q 0.05260120738636363 2.254003684303977 0.05326704545454545 2.243017356178977 Q 0.05726207386363636 2.165114302201704 0.05726207386363636 2.039437366832386 Q 0.05726207386363636 1.9137604314630678 0.057095614346590905 1.8839641779119316 Q 0.05692915482954545 1.8541679243607951 0.05626331676136363 1.829198996803977 Q 0.05493164062499999 1.7795940607244316 0.05060369318181818 1.7399766956676133 Q 0.04960493607954545 1.7293232865767043 0.055597478693181816 1.7239965820312497 Q 0.06159002130681818 1.7186698774857954 0.06924715909090909 1.7186698774857954 M 0.40799227627840906 1.7200015536221587 Q 0.4159823330965909 1.7200015536221587 0.42264071377840906 1.726659934303977 Q 0.42929909446022724 1.7333183149857954 0.4331276633522727 1.7544586736505678 Q 0.4369562322443181 1.7755990323153408 0.4447798295454545 1.8148834783380678 Q 0.45260342684659083 1.8541679243607951 0.46225807883522724 1.898779074928977 Q 0.4719127308238636 1.943390225497159 0.4825661399147727 1.9908311878551133 Q 0.49321954900568177 2.038272150213068 0.5038729580965908 2.0828833007812495 Q 0.5295077237215908 2.1874198774857954 0.5438232421875 2.235693137428977 Q 0.5471524325284091 2.2480111416903408 0.5419921875 2.2553353604403408 Q 0.5368319424715908 2.2626595791903408 0.5305064808238635 2.2626595791903408 Q 0.5241810191761362 2.2626595791903408 0.5190207741477273 2.2589974698153408 Q 0.5138605291193181 2.2553353604403408 0.5098655007102273 2.2373577325994316 Q 0.5058704723011362 2.2193801047585224 0.49688165838068177 2.1790969016335224 Q 0.48789284446022724 2.1388136985085224 0.47757235440340906 2.092537952769886 Q 0.4772394353693181 2.0905404385653408 0.47690651633522724 2.088875843394886 Q 0.4542680220170454 2.0878770862926133 0.4129860617897727 2.0878770862926133 Q 0.3643798828125 2.0878770862926133 0.3387451171875 2.089208762428977 Q 0.33841219815340906 2.0912062766335224 0.3380792791193181 2.093203790838068 Q 0.3177712180397727 2.1910819868607954 0.30811656605113635 2.2446819513494316 Q 0.30478737571022724 2.261660822088068 0.2904718572443182 2.261660822088068 Q 0.27549050071022724 2.261660822088068 0.2721613103693182 2.247012384588068 Q 0.2711625532670454 2.242684437144886 0.2741588245738636 2.2333627041903408 Q 0.27715509588068177 2.2240409712357954 0.2829811789772727 2.201236017400568 Q 0.2888072620738636 2.1784310635653408 0.29563210227272724 2.1489677290482954 Q 0.3024569424715909 2.1195043945312495 0.31011408025568177 2.084547895951704 Q 0.3177712180397727 2.0495913973721587 0.32576127485795453 2.012637384588068 Q 0.33375133167613635 1.975683371803977 0.3417413884943181 1.9382299804687497 Q 0.3497314453125 1.9007765891335224 0.3570556640625 1.865820090553977 Q 0.3643798828125 1.8308635919744316 0.3708718039772727 1.8002350408380678 Q 0.3773637251420454 1.7696064897017043 0.38135875355113635 1.7516288618607954 Q 0.3876842151988636 1.7200015536221587 0.40799227627840906 1.7200015536221587 M 0.34507057883522724 2.0582472922585224 Q 0.37037242542613635 2.059578968394886 0.4133189808238636 2.059578968394886 Q 0.44894131747159083 2.059578968394886 0.47024813565340906 2.0585802112926133 Q 0.4632568359375 2.0282845791903408 0.45626553622159083 1.9963243519176133 Q 0.44527920809659083 1.9467194158380678 0.4352916370738636 1.9001107510653408 Q 0.4186456853693181 1.8238722922585224 0.4066606001420454 1.7662772993607951 Q 0.3990034623579545 1.8045629882812497 0.3846879438920454 1.8704809570312497 Q 0.36604447798295453 1.9583715820312497 0.3563898259943181 2.0043144087357954 Q 0.3507302024147727 2.0319466885653408 0.34507057883522724 2.0582472922585224 M 0.7465709339488636 2.110848499644886 L 0.7462380149147727 1.9513802823153408 Q 0.7462380149147727 1.8395194868607951 0.7382479580965908 1.7389779385653408 Q 0.7372492009943181 1.7239965820312497 0.7479026100852273 1.7196686345880678 Q 0.7538951526988636 1.7170052823153408 0.7618852095170454 1.7183369584517043 Q 0.7758678089488636 1.7206673916903408 0.7958429509943181 1.7206673916903408 Q 0.8158180930397727 1.7206673916903408 0.8249733664772727 1.7205009321732954 Q 0.8341286399147727 1.7203344726562497 0.8434503728693181 1.7200015536221587 Q 0.8667547052556818 1.7190027965198862 0.875244140625 1.7180040394176133 Q 0.8837335759943181 1.7170052823153408 0.8882279829545454 1.7183369584517043 Q 0.8927223899147727 1.7196686345880678 0.8960515802556818 1.7223319868607954 Q 0.9027099609375 1.7283245294744316 0.9027099609375 1.735815207741477 Q 0.9027099609375 1.7433058860085224 0.8967174183238635 1.7482996715198862 Q 0.8907248757102273 1.7532934570312497 0.8802379261363635 1.7527940784801133 Q 0.8697509765625 1.752294699928977 0.8571000532670454 1.7514624023437497 Q 0.8444491299715908 1.7506301047585224 0.8298006924715908 1.7502971857244316 Q 0.7991721413352273 1.7492984286221587 0.7778653231534091 1.7506301047585224 L 0.7778653231534091 1.8082250976562497 Q 0.7778653231534091 1.8421828391335224 0.7775324041193181 1.877472256747159 Q 0.7771994850852273 1.9716883433948862 0.7771994850852273 2.015966574928977 Q 0.8228093927556818 2.015966574928977 0.8487770774147727 2.0133032226562495 Q 0.8764093572443181 2.0103069513494316 0.8764093572443181 2.0276187411221587 Q 0.8764093572443181 2.044264692826704 0.8381236683238636 2.0445976118607954 Q 0.8284690163352273 2.044930530894886 0.8228093927556818 2.044930530894886 L 0.7961758700284091 2.0445976118607954 L 0.7771994850852273 2.0445976118607954 L 0.7801957563920454 2.239355246803977 Q 0.7801957563920454 2.2480111416903408 0.7757013494318181 2.2538372247869316 Q 0.7712069424715908 2.2596633078835224 0.7658802379261364 2.2596633078835224 Q 0.7605535333806818 2.2596633078835224 0.7572243430397727 2.2588310102982954 Q 0.7538951526988636 2.257998712713068 0.7508988813920454 2.2556682794744316 Q 0.7439075816761364 2.2496757368607954 0.7445734197443181 2.239355246803977 Q 0.7465709339488636 2.2010695578835224 0.7465709339488636 2.110848499644886 M 0.9791148792613636 2.0768907581676133 L 0.9797807173295454 2.195077015269886 Q 0.9797807173295454 2.2110571289062495 0.9797807173295454 2.2223763760653408 Q 0.9801136363636364 2.227370161576704 0.9801136363636364 2.231032270951704 Q 1.0640092329545454 2.231032270951704 1.0916415127840908 2.228368918678977 Q 1.120272549715909 2.2253726473721587 1.1249334161931817 2.2267043235085224 Q 1.1295942826704546 2.228035999644886 1.1329234730113635 2.231032270951704 Q 1.1395818536931817 2.2370248135653408 1.1395818536931817 2.2441825727982954 Q 1.1395818536931817 2.2513403320312495 1.1332563920454546 2.2565005770596587 Q 1.1269309303977273 2.261660822088068 1.1156116832386362 2.260994984019886 Q 1.0610129616477273 2.256667036576704 1.0170676491477273 2.259496848366477 Q 0.9731223366477273 2.2623266601562495 0.9677956321022727 2.263158957741477 Q 0.9624689275568181 2.263991255326704 0.9583074396306818 2.263158957741477 Q 0.9541459517045454 2.2623266601562495 0.9508167613636364 2.2596633078835224 Q 0.9431596235795454 2.254003684303977 0.9438254616477273 2.243017356178977 Q 0.9488192471590908 2.146803755326704 0.9488192471590908 2.0301156338778408 Q 0.9488192471590908 1.913427512428977 0.9489857066761364 1.8832983398437497 Q 0.9491521661931818 1.8531691672585224 0.9491521661931818 1.8282002397017043 Q 0.948486328125 1.7746002752130678 0.9468217329545454 1.7524611594460224 Q 0.9451571377840908 1.730322043678977 0.9476540305397727 1.7259940962357954 Q 0.9501509232954545 1.7216661487926133 0.9538130326704545 1.7196686345880678 Q 0.9588068181818181 1.7173382013494316 0.9664639559659091 1.7186698774857954 Q 0.9804465553977273 1.7210003107244316 1.00341796875 1.7210003107244316 Q 1.0476962002840908 1.7210003107244316 1.0638427734375 1.7191692560369316 Q 1.0799893465909092 1.7173382013494316 1.0846502130681817 1.7188363370028408 Q 1.0893110795454546 1.7203344726562497 1.0923073508522727 1.722997824928977 Q 1.0989657315340908 1.7283245294744316 1.0989657315340908 1.7359816672585224 Q 1.0989657315340908 1.7436388050426133 1.0929731889204546 1.748632590553977 Q 1.0869806463068181 1.7536263760653408 1.07666015625 1.7531269975142043 Q 1.0663396661931817 1.7526276189630678 1.0546875 1.7517953213778408 Q 1.0430353338068181 1.7509630237926133 1.0297185724431817 1.7502971857244316 Q 1.0017533735795454 1.7492984286221587 0.9811123934659091 1.7509630237926133 Q 0.9811123934659091 1.7799269797585224 0.9807794744318181 1.8085580166903408 Q 0.9804465553977273 1.8425157581676133 0.9801136363636364 1.877472256747159 Q 0.9791148792613636 1.9713554243607951 0.9791148792613636 2.015966574928977 Q 1.0207297585227273 2.015966574928977 1.0403719815340908 2.0139690607244316 Q 1.0616787997159092 2.0116386274857954 1.0671719637784092 2.015966574928977 Q 1.0726651278409092 2.0202945223721587 1.0726651278409092 2.0276187411221587 Q 1.0726651278409092 2.0459292879971587 1.0383744673295454 2.045263449928977 Q 1.0313831676136362 2.044930530894886 1.0257235440340908 2.044930530894886 L 0.9987571022727273 2.0445976118607954 L 0.9791148792613636 2.0445976118607954 L 0.9791148792613636 2.0768907581676133 M 1.0516912286931817 1.6361059570312497 Q 1.0663396661931817 1.6554152610085224 1.0979669744318181 1.6703966175426133 Q 1.1126154119318181 1.6773879172585224 1.1126154119318181 1.690038840553977 Q 1.1126154119318181 1.6963643022017043 1.1077880859375 1.7005257901278408 Q 1.1029607599431817 1.704687278053977 1.0966352982954546 1.704687278053977 Q 1.0863148082386362 1.704687278053977 1.0796564275568181 1.6978624378551133 Q 1.072998046875 1.6910375976562497 1.0671719637784092 1.6852115145596587 Q 1.0613458806818181 1.6793854314630678 1.0540216619318181 1.6723941317471587 Q 1.0417036576704546 1.6610748845880678 1.03271484375 1.6530848277698862 Q 1.0233931107954546 1.6610748845880678 1.0147372159090908 1.668066184303977 Q 0.9904341264204545 1.6873754882812497 0.9837757457386364 1.693700949928977 Q 0.9727894176136364 1.704687278053977 0.9649658203125 1.704687278053977 Q 0.9571422230113636 1.704687278053977 0.9528142755681818 1.7005257901278408 Q 0.948486328125 1.6963643022017043 0.948486328125 1.6907046786221587 Q 0.948486328125 1.6783866743607954 0.9568093039772727 1.673559348366477 Q 0.9651322798295454 1.6687320223721587 0.9724564985795454 1.6645705344460224 Q 0.9797807173295454 1.6604090465198862 0.9864390980113636 1.6557481800426133 Q 1.0024192116477273 1.6450947709517043 1.0084117542613635 1.6377705522017043 Q 1.0213955965909092 1.6214575195312497 1.0292191938920454 1.6214575195312497 Q 1.0370427911931817 1.6214575195312497 1.0420365767045454 1.625951926491477 Q 1.0470303622159092 1.6304463334517043 1.0516912286931817 1.6361059570312497 M 1.2536066228693181 1.7213332297585224 Q 1.2629283558238635 1.7213332297585224 1.3734574751420454 1.7186698774857954 Q 1.388771750710227 1.7186698774857954 1.3944313742897725 1.730322043678977 Q 1.3957630504261362 1.7336512340198862 1.3957630504261362 1.7379791814630678 Q 1.3957630504261362 1.7423071289062497 1.3907692649147725 1.746801535866477 Q 1.385775479403409 1.7512959428267043 1.3721257990056817 1.7509630237926133 Q 1.3584761186079544 1.7506301047585224 1.3456587357954544 1.7499642666903408 Q 1.3328413529829544 1.7492984286221587 1.3218550248579544 1.7489655095880678 Q 1.3022128018465908 1.7482996715198862 1.2882302024147725 1.748632590553977 Q 1.2855668501420454 1.8252039683948862 1.2855668501420454 1.9147591885653408 Q 1.2855668501420454 2.0106398703835224 1.2857333096590908 2.046095747514204 Q 1.2858997691761362 2.081551624644886 1.2865656072443181 2.113844770951704 Q 1.2875643643465908 2.1964086914062495 1.2885631214488635 2.2363589754971587 Q 1.2888960404829544 2.2476782226562495 1.2834028764204544 2.2531713867187495 Q 1.2779097123579544 2.2586645507812495 1.2714177911931817 2.2586645507812495 Q 1.264925870028409 2.2586645507812495 1.258766867897727 2.2535043057528408 Q 1.2526078657670454 2.2483440607244316 1.2526078657670454 2.2380235706676133 L 1.2522749467329544 2.194411177201704 L 1.2556041370738635 1.8764734996448862 Q 1.2556041370738635 1.7875841175426133 1.253273703835227 1.748632590553977 Q 1.235628995028409 1.7482996715198862 1.2113259055397725 1.7499642666903408 Q 1.1826948686079544 1.7519617808948862 1.1698774857954544 1.7527940784801133 Q 1.1570601029829544 1.7536263760653408 1.1517333984374998 1.748632590553977 Q 1.1464066938920454 1.7436388050426133 1.1464066938920454 1.7371468838778408 Q 1.1464066938920454 1.7306549627130678 1.1517333984374998 1.7243295010653408 Q 1.1570601029829544 1.7180040394176133 1.1688787286931817 1.7185034179687497 Q 1.180697354403409 1.7190027965198862 1.1893532492897727 1.719335715553977 Q 1.1980091441761362 1.7196686345880678 1.204501065340909 1.7200015536221587 Q 1.2109929865056817 1.7203344726562497 1.2159867720170454 1.7206673916903408 Q 1.220980557528409 1.7210003107244316 1.2261408025568181 1.721166770241477 Q 1.231301047585227 1.7213332297585224 1.2379594282670454 1.7213332297585224 L 1.2536066228693181 1.7213332297585224 M 1.4821555397727273 2.0768907581676133 L 1.4828213778409092 2.195077015269886 Q 1.4828213778409092 2.2110571289062495 1.4828213778409092 2.2223763760653408 Q 1.483154296875 2.227370161576704 1.483154296875 2.231032270951704 Q 1.5670498934659092 2.231032270951704 1.5946821732954546 2.228368918678977 Q 1.6233132102272727 2.2253726473721587 1.6279740767045454 2.2267043235085224 Q 1.6326349431818181 2.228035999644886 1.6359641335227273 2.231032270951704 Q 1.6426225142045454 2.2370248135653408 1.6426225142045454 2.2441825727982954 Q 1.6426225142045454 2.2513403320312495 1.6362970525568181 2.2565005770596587 Q 1.6299715909090908 2.261660822088068 1.61865234375 2.260994984019886 Q 1.5640536221590908 2.256667036576704 1.5201083096590908 2.259496848366477 Q 1.4761629971590908 2.2623266601562495 1.4708362926136362 2.263158957741477 Q 1.4655095880681819 2.263991255326704 1.4613481001420454 2.263158957741477 Q 1.4571866122159092 2.2623266601562495 1.453857421875 2.2596633078835224 Q 1.4462002840909092 2.254003684303977 1.4468661221590908 2.243017356178977 Q 1.4518599076704546 2.146803755326704 1.4518599076704546 2.0301156338778408 Q 1.4518599076704546 1.913427512428977 1.4520263671875 1.8832983398437497 Q 1.4521928267045454 1.8531691672585224 1.4521928267045454 1.8282002397017043 Q 1.4515269886363635 1.7746002752130678 1.4498623934659092 1.7524611594460224 Q 1.4481977982954546 1.730322043678977 1.4506946910511362 1.7259940962357954 Q 1.4531915838068181 1.7216661487926133 1.4568536931818181 1.7196686345880678 Q 1.4618474786931819 1.7173382013494316 1.4695046164772727 1.7186698774857954 Q 1.4834872159090908 1.7210003107244316 1.5064586292613635 1.7210003107244316 Q 1.5507368607954546 1.7210003107244316 1.5668834339488635 1.7191692560369316 Q 1.5830300071022727 1.7173382013494316 1.5876908735795454 1.7188363370028408 Q 1.5923517400568181 1.7203344726562497 1.5953480113636362 1.722997824928977 Q 1.6020063920454546 1.7283245294744316 1.6020063920454546 1.7359816672585224 Q 1.6020063920454546 1.7436388050426133 1.5960138494318181 1.748632590553977 Q 1.5900213068181819 1.7536263760653408 1.5797008167613635 1.7531269975142043 Q 1.5693803267045454 1.7526276189630678 1.5577281605113635 1.7517953213778408 Q 1.5460759943181819 1.7509630237926133 1.5327592329545454 1.7502971857244316 Q 1.5047940340909092 1.7492984286221587 1.4841530539772727 1.7509630237926133 Q 1.4841530539772727 1.7799269797585224 1.4838201349431819 1.8085580166903408 Q 1.4834872159090908 1.8425157581676133 1.483154296875 1.877472256747159 Q 1.4821555397727273 1.9713554243607951 1.4821555397727273 2.015966574928977 Q 1.5237704190340908 2.015966574928977 1.5434126420454546 2.0139690607244316 Q 1.5647194602272727 2.0116386274857954 1.5702126242897727 2.015966574928977 Q 1.5757057883522727 2.0202945223721587 1.5757057883522727 2.0276187411221587 Q 1.5757057883522727 2.0459292879971587 1.5414151278409092 2.045263449928977 Q 1.534423828125 2.044930530894886 1.5287642045454546 2.044930530894886 L 1.5017977627840908 2.0445976118607954 L 1.4821555397727273 2.0445976118607954 L 1.4821555397727273 2.0768907581676133 M 1.9246049360795454 1.7200015536221587 Q 1.9325949928977273 1.7200015536221587 1.9392533735795454 1.726659934303977 Q 1.9459117542613638 1.7333183149857954 1.9497403231534092 1.7544586736505678 Q 1.9535688920454546 1.7755990323153408 1.9613924893465908 1.8148834783380678 Q 1.9692160866477273 1.8541679243607951 1.9788707386363638 1.898779074928977 Q 1.988525390625 1.943390225497159 1.9991787997159092 1.9908311878551133 Q 2.0098322088068183 2.038272150213068 2.020485617897727 2.0828833007812495 Q 2.0461203835227275 2.1874198774857954 2.0604359019886362 2.235693137428977 Q 2.0637650923295454 2.2480111416903408 2.0586048473011362 2.2553353604403408 Q 2.0534446022727275 2.2626595791903408 2.047119140625 2.2626595791903408 Q 2.0407936789772725 2.2626595791903408 2.0356334339488638 2.2589974698153408 Q 2.0304731889204546 2.2553353604403408 2.0264781605113638 2.2373577325994316 Q 2.0224831321022725 2.2193801047585224 2.0134943181818183 2.1790969016335224 Q 2.0045055042613638 2.1388136985085224 1.9941850142045454 2.092537952769886 Q 1.9938520951704546 2.0905404385653408 1.9935191761363638 2.088875843394886 Q 1.9708806818181819 2.0878770862926133 1.9295987215909092 2.0878770862926133 Q 1.8809925426136365 2.0878770862926133 1.8553577769886365 2.089208762428977 Q 1.8550248579545454 2.0912062766335224 1.8546919389204546 2.093203790838068 Q 1.8343838778409092 2.1910819868607954 1.8247292258522727 2.2446819513494316 Q 1.8214000355113638 2.261660822088068 1.8070845170454546 2.261660822088068 Q 1.7921031605113638 2.261660822088068 1.7887739701704546 2.247012384588068 Q 1.7877752130681819 2.242684437144886 1.790771484375 2.2333627041903408 Q 1.7937677556818181 2.2240409712357954 1.7995938387784092 2.201236017400568 Q 1.805419921875 2.1784310635653408 1.8122447620738638 2.1489677290482954 Q 1.8190696022727273 2.1195043945312495 1.8267267400568181 2.084547895951704 Q 1.8343838778409092 2.0495913973721587 1.8423739346590908 2.012637384588068 Q 1.8503639914772727 1.975683371803977 1.8583540482954546 1.9382299804687497 Q 1.8663441051136365 1.9007765891335224 1.8736683238636365 1.865820090553977 Q 1.8809925426136365 1.8308635919744316 1.8874844637784092 1.8002350408380678 Q 1.8939763849431819 1.7696064897017043 1.8979714133522727 1.7516288618607954 Q 1.904296875 1.7200015536221587 1.9246049360795454 1.7200015536221587 M 1.8616832386363638 2.0582472922585224 Q 1.8869850852272727 2.059578968394886 1.929931640625 2.059578968394886 Q 1.9655539772727273 2.059578968394886 1.9868607954545454 2.0585802112926133 Q 1.9798694957386365 2.0282845791903408 1.9728781960227273 1.9963243519176133 Q 1.9618918678977273 1.9467194158380678 1.951904296875 1.9001107510653408 Q 1.9352583451704546 1.8238722922585224 1.9232732599431819 1.7662772993607951 Q 1.9156161221590908 1.8045629882812497 1.9013006036931819 1.8704809570312497 Q 1.8826571377840908 1.9583715820312497 1.8730024857954546 2.0043144087357954 Q 1.8673428622159092 2.0319466885653408 1.8616832386363638 2.0582472922585224 M 1.8698397549715908 1.6231221147017043 Q 1.8769975142045454 1.6257854669744316 1.8914794921875 1.635773037997159 Q 1.9059614701704546 1.6457606090198862 1.9191117720170454 1.6524189897017043 Q 1.9322620738636365 1.6590773703835224 1.9407515092329546 1.6632388583096587 Q 1.9492409446022727 1.6674003462357954 1.9537353515625 1.6710624556107954 Q 1.9582297585227273 1.6747245649857954 1.9595614346590908 1.6810500266335224 Q 1.9618918678977273 1.6933680308948862 1.9485751065340908 1.6960313831676133 Q 1.9405850497159092 1.697363059303977 1.9264359907670454 1.6903717595880678 Q 1.9122869318181819 1.6833804598721587 1.8978049538352273 1.6773879172585224 Q 1.8833229758522727 1.6713953746448862 1.8710049715909092 1.6657357510653408 Q 1.842041015625 1.6527519087357954 1.8410422585227273 1.6445953924005678 Q 1.8400435014204546 1.6364388760653408 1.8437056107954546 1.6299469549005678 Q 1.8473677201704546 1.6234550337357954 1.8550248579545454 1.6219568980823862 Q 1.8626819957386365 1.620458762428977 1.8698397549715908 1.6231221147017043 M 2.4912331321022725 1.8461778675426133 Q 2.5018865411931817 1.8867939897017043 2.5018865411931817 1.9358995472301133 Q 2.5018865411931817 1.9850051047585224 2.4935635653409087 2.0271193625710224 Q 2.485240589488636 2.0692336203835224 2.470259232954545 2.1050224165482954 Q 2.455277876420454 2.140811212713068 2.4344704367897725 2.1696087091619316 Q 2.4136629971590904 2.1984062056107954 2.3883611505681817 2.2187142666903408 Q 2.3360928622159087 2.2606620649857954 2.2748357599431817 2.2606620649857954 Q 2.265181107954545 2.2606620649857954 2.2623512961647725 2.2545030628551133 Q 2.2595214843749996 2.2483440607244316 2.2595214843749996 2.239688165838068 L 2.2595214843749996 2.2110571289062495 Q 2.2595214843749996 2.1904161487926133 2.259355024857954 2.160952814275568 Q 2.2591885653409087 2.1314894797585224 2.2590221058238633 2.0953677645596587 Q 2.258855646306818 2.0592460493607954 2.2583562677556817 2.020460981889204 Q 2.257856889204545 1.9816759144176133 2.2573575106534087 1.9422250088778408 Q 2.2568581321022725 1.9027741033380678 2.2561922940340904 1.8668188476562497 Q 2.254194779829545 1.7922449840198862 2.251531427556818 1.7492984286221587 Q 2.2498668323863633 1.726659934303977 2.2715065696022725 1.7239965820312497 Q 2.3034667968749996 1.719335715553977 2.324107776988636 1.719335715553977 Q 2.4579412286931817 1.719335715553977 2.4912331321022725 1.8461778675426133 M 2.2928133877840904 2.2293676757812495 Q 2.3304332386363633 2.228035999644886 2.367720170454545 2.1970745294744316 Q 2.436967329545454 2.139479536576704 2.460271661931818 2.0252883078835224 Q 2.4682617187499996 1.9860038618607951 2.4682617187499996 1.9362324662642043 Q 2.4682617187499996 1.8864610706676133 2.4561101740056817 1.8496735174005678 Q 2.4439586292613633 1.8128859641335224 2.4246493252840904 1.7909133078835224 Q 2.3883611505681817 1.7496313476562497 2.331099076704545 1.7496313476562497 Q 2.306130149147727 1.7496313476562497 2.290482954545454 1.7549580522017043 Q 2.287819602272727 1.7892487127130678 2.287819602272727 1.851171653053977 Q 2.287819602272727 1.9254125976562497 2.288152521306818 1.964697043678977 Q 2.2884854403409087 2.003981489701704 2.288984818892045 2.041601340553977 Q 2.2894841974431817 2.0792211914062495 2.289983575994318 2.1136783114346587 Q 2.290482954545454 2.148135431463068 2.291148792613636 2.1754347922585224 Q 2.2921475497159087 2.209725452769886 2.2928133877840904 2.2293676757812495 M 2.695146040482954 2.2673204456676133 Q 2.625565962357954 2.2673204456676133 2.5927734374999996 2.195409934303977 Q 2.559980912642045 2.1234994229403408 2.559980912642045 1.983007590553977 Q 2.559980912642045 1.8721455522017043 2.597600763494318 1.796905850497159 Q 2.6162442294034087 1.760284756747159 2.642877752130681 1.7384785600142043 Q 2.669511274857954 1.7166723632812497 2.704301313920454 1.7166723632812497 Q 2.739091352982954 1.7166723632812497 2.765059037642045 1.7348164506392043 Q 2.791026722301136 1.7529605379971587 2.8080055930397725 1.7872511985085224 Q 2.8412974964488633 1.8545008433948862 2.841963334517045 1.983007590553977 Q 2.8426291725852266 2.118172718394886 2.8033447265624996 2.1934124200994316 Q 2.764726118607954 2.2673204456676133 2.695146040482954 2.2673204456676133 M 2.739757191051136 1.7557903497869316 Q 2.7241099964488633 1.7459692382812497 2.705133611505681 1.7459692382812497 Q 2.6861572265624996 1.7459692382812497 2.670842950994318 1.7557903497869316 Q 2.655528675426136 1.7656114612926133 2.643044211647727 1.7829232510653408 Q 2.630559747869318 1.8002350408380678 2.621071555397727 1.823705832741477 Q 2.611583362926136 1.8471766246448862 2.604924982244318 1.8741430664062497 Q 2.5919411399147725 1.9294076260653408 2.5919411399147725 1.9845057262073862 Q 2.5919411399147725 2.0396038263494316 2.5961026278409087 2.0768907581676133 Q 2.600264115767045 2.1141776899857954 2.607588334517045 2.141310591264204 Q 2.614912553267045 2.1684434925426133 2.625066583806818 2.186587579900568 Q 2.6352206143465904 2.2047316672585224 2.6468727805397725 2.2157179953835224 Q 2.668512517755681 2.235360218394886 2.6984752308238633 2.235360218394886 Q 2.787031693892045 2.235360218394886 2.8060080788352266 2.0725628107244316 Q 2.8103360262784087 2.0352758789062495 2.8103360262784087 1.9966572709517043 Q 2.8103360262784087 1.958038662997159 2.8080055930397725 1.9290747070312497 Q 2.805675159801136 1.9001107510653408 2.8005149147727266 1.8733107688210224 Q 2.795354669744318 1.8465107865767043 2.7871981534090904 1.8232064541903408 Q 2.7790416370738633 1.799902121803977 2.767223011363636 1.7827567915482951 Q 2.7554043856534087 1.7656114612926133 2.739757191051136 1.7557903497869316 M 3.2556152343749996 1.8421828391335224 L 3.2559481534090904 1.9623666104403406 Q 3.2559481534090904 2.088210005326704 3.261274857954545 2.239022327769886 Q 3.261607776988636 2.2496757368607954 3.255781693892045 2.2546695223721587 Q 3.249955610795454 2.2596633078835224 3.242631392045454 2.2596633078835224 Q 3.235307173295454 2.2596633078835224 3.229314630681818 2.254003684303977 Q 3.223322088068181 2.2483440607244316 3.223322088068181 2.2376906516335224 Q 3.228315873579545 2.0878770862926133 3.228315873579545 1.9880013760653406 L 3.228315873579545 1.8155493164062497 Q 3.228315873579545 1.796240012428977 3.227982954545454 1.7792611416903408 Q 3.220658735795454 1.8075592595880678 3.2090065696022725 1.8528362482244316 Q 3.1823730468749996 1.9523790394176133 3.1717196377840904 1.9904982688210224 Q 3.161066228693181 2.0286174982244316 3.1504128196022725 2.0655715110085224 Q 3.1284401633522725 2.1418099698153408 3.1094637784090904 2.199404962713068 Q 3.107466264204545 2.206063343394886 3.101640181107954 2.2093925337357954 Q 3.0958140980113633 2.212721724076704 3.0904873934659087 2.212721724076704 Q 3.0801669034090904 2.212721724076704 3.0765047940340904 2.199404962713068 Q 3.074840198863636 2.1940782581676133 3.068681196732954 2.1736037375710224 Q 3.0625221946022725 2.1531292169744316 3.0533669211647725 2.123000044389204 Q 3.0442116477272725 2.092870871803977 3.0330588600852266 2.0554174804687495 Q 3.021906072443181 2.0179640891335224 3.010087446732954 1.9786796431107951 Q 2.9982688210227266 1.9393951970880678 2.986949573863636 1.9007765891335224 Q 2.975630326704545 1.862157981178977 2.9663085937499996 1.8295319158380678 Q 2.9586514559659087 1.8025654740767043 2.953324751420454 1.7829232510653408 L 2.953990589488636 1.8654871715198862 Q 2.953990589488636 2.016299493963068 2.9571533203124996 2.114843528053977 Q 2.9603160511363633 2.213387562144886 2.960648970170454 2.2293676757812495 Q 2.960981889204545 2.2453477894176133 2.959150834517045 2.2490098987926133 Q 2.957319779829545 2.2526720081676133 2.954323508522727 2.2550024414062495 Q 2.941339666193181 2.2659887695312495 2.928688742897727 2.254336603338068 Q 2.9226962002840904 2.2486769797585224 2.923528497869318 2.2343614612926133 Q 2.924360795454545 2.220045942826704 2.925026633522727 2.1985726651278408 Q 2.9256924715909087 2.177099387428977 2.9260253906249996 2.1531292169744316 Q 2.9273570667613633 2.096532981178977 2.9273570667613633 2.0482597212357954 L 2.9233620383522725 1.7453034002130678 Q 2.9233620383522725 1.730322043678977 2.930353338068181 1.7241630415482954 Q 2.9373446377840904 1.7180040394176133 2.946666370738636 1.7180040394176133 Q 2.964311079545454 1.7180040394176133 2.9709694602272725 1.7393108575994316 Q 2.971635298295454 1.741308371803977 2.974465110085227 1.7511294833096587 Q 2.9772949218749996 1.7609505948153408 2.9819557883522725 1.776764248934659 Q 2.986616654829545 1.792577903053977 2.992775656960227 1.813385342684659 Q 2.9989346590909087 1.8341927823153408 3.005925958806818 1.8581629527698862 Q 3.0129172585227266 1.8821331232244316 3.020574396306818 1.9084337269176133 Q 3.0472079190340904 1.9999864612926133 3.0941495028409087 2.159121759588068 Q 3.118785511363636 2.088875843394886 3.1850363991477266 1.8405182439630678 Q 3.1980202414772725 1.7912462269176133 3.211004083806818 1.7399766956676133 Q 3.216996626420454 1.7170052823153408 3.2386363636363633 1.7170052823153408 Q 3.2472922585227266 1.7170052823153408 3.252452503551136 1.7254947176846587 Q 3.257612748579545 1.733984153053977 3.2569469105113633 1.7499642666903408 Q 3.2556152343749996 1.7722698419744316 3.2556152343749996 1.8421828391335224 M 3.4094238281249996 1.8227070756392043 Q 3.409257368607954 1.840851162997159 3.409257368607954 1.9686920720880678 Q 3.409257368607954 2.096532981178977 3.413252397017045 2.2376906516335224 Q 3.413585316051136 2.2483440607244316 3.4070933948863633 2.254003684303977 Q 3.4006014737215904 2.2596633078835224 3.393443714488636 2.2596633078835224 Q 3.386285955255681 2.2596633078835224 3.380792791193181 2.2546695223721587 Q 3.375299627130681 2.2496757368607954 3.3759654651988633 2.232363947088068 Q 3.376631303267045 2.2150521573153408 3.3772971413352266 2.184423606178977 Q 3.3779629794034087 2.1537950550426133 3.3786288174715904 2.1191714754971587 Q 3.379960493607954 2.0505901544744316 3.379960493607954 1.9911641068892043 Q 3.379960493607954 1.931738059303977 3.3797940340909087 1.8986126154119316 Q 3.3796275745738633 1.8654871715198862 3.378961736505681 1.8375219726562497 Q 3.3779629794034087 1.7755990323153408 3.375299627130681 1.7386450195312497 Q 3.3743008700284087 1.7279916104403408 3.3791281960227266 1.7228313654119316 Q 3.383955522017045 1.7176711203835224 3.391612659801136 1.7176711203835224 Q 3.3992697975852266 1.7176711203835224 3.405928178267045 1.7228313654119316 Q 3.4125865589488633 1.7279916104403408 3.4120871803977266 1.7403096147017043 Q 3.4115878018465904 1.7526276189630678 3.411088423295454 1.7646127041903408 Q 3.410589044744318 1.7765977894176133 3.410089666193181 1.7905803888494316 Q 3.409590287642045 1.8045629882812497 3.4094238281249996 1.8227070756392043 M 3.7147105823863633 2.122167746803977 Q 3.7147105823863633 2.111181418678977 3.7202037464488633 2.1050224165482954 Q 3.7256969105113633 2.0988634144176133 3.732854669744318 2.0988634144176133 Q 3.7400124289772725 2.0988634144176133 3.7455055930397725 2.1040236594460224 Q 3.7509987571022725 2.1091839044744316 3.7503329190340904 2.1198373135653408 Q 3.7470037286931817 2.187086958451704 3.7140447443181817 2.228035999644886 Q 3.682417436079545 2.2673204456676133 3.634810014204545 2.2673204456676133 Q 3.5449218749999996 2.2673204456676133 3.518621271306818 2.132821155894886 Q 3.5086337002840904 2.0832162198153408 3.5086337002840904 2.0158001154119316 Q 3.5086337002840904 1.9483840110085224 3.5169566761363633 1.8956163441051133 Q 3.5252796519886362 1.8428486772017043 3.5422585227272725 1.8038971502130678 Q 3.5785466974431817 1.7206673916903408 3.645463423295454 1.7206673916903408 Q 3.697398792613636 1.7206673916903408 3.722367720170454 1.7616164328835224 Q 3.748668323863636 1.8052288263494316 3.748668323863636 1.9041057794744316 Q 3.748668323863636 1.9150921075994316 3.7436745383522725 1.9205852716619316 Q 3.7386807528409087 1.9260784357244316 3.7316894531249996 1.9260784357244316 Q 3.716375177556818 1.9260784357244316 3.716375177556818 1.906769131747159 Q 3.716375177556818 1.7835890891335224 3.6770907315340904 1.7599518377130678 Q 3.6631081321022725 1.7516288618607954 3.6444646661931817 1.7516288618607954 Q 3.6258212002840904 1.7516288618607954 3.611006303267045 1.762115811434659 Q 3.5961914062499996 1.7726027610085224 3.5847056995738633 1.7910797674005678 Q 3.573219992897727 1.8095567737926133 3.564897017045454 1.834692160866477 Q 3.5565740411931817 1.8598275479403408 3.551247336647727 1.8887915039062497 Q 3.540593927556818 1.9473852539062497 3.540593927556818 2.0044808682528408 Q 3.540593927556818 2.0615764825994316 3.544256036931818 2.0960336026278408 Q 3.547918146306818 2.1304907226562495 3.5545765269886362 2.1549602716619316 Q 3.561234907670454 2.1794298206676133 3.570390181107954 2.1949105557528408 Q 3.579545454545454 2.210391290838068 3.590531782670454 2.2193801047585224 Q 3.609175248579545 2.2350272993607954 3.638139204545454 2.2350272993607954 Q 3.6704323508522725 2.2350272993607954 3.6910733309659087 2.2087266956676133 Q 3.715376420454545 2.1784310635653408 3.7147105823863633 2.122167746803977 M 3.883500532670454 1.8227070756392043 Q 3.8833340731534087 1.840851162997159 3.8833340731534087 1.9686920720880678 Q 3.8833340731534087 2.096532981178977 3.8873291015624996 2.2376906516335224 Q 3.8876620205965904 2.2483440607244316 3.881170099431818 2.254003684303977 Q 3.874678178267045 2.2596633078835224 3.8675204190340904 2.2596633078835224 Q 3.860362659801136 2.2596633078835224 3.854869495738636 2.2546695223721587 Q 3.849376331676136 2.2496757368607954 3.850042169744318 2.232363947088068 Q 3.8507080078124996 2.2150521573153408 3.851373845880681 2.184423606178977 Q 3.8520396839488633 2.1537950550426133 3.852705522017045 2.1191714754971587 Q 3.8540371981534087 2.0505901544744316 3.8540371981534087 1.9911641068892043 Q 3.8540371981534087 1.931738059303977 3.8538707386363633 1.8986126154119316 Q 3.853704279119318 1.8654871715198862 3.853038441051136 1.8375219726562497 Q 3.8520396839488633 1.7755990323153408 3.849376331676136 1.7386450195312497 Q 3.8483775745738633 1.7279916104403408 3.853204900568181 1.7228313654119316 Q 3.8580322265624996 1.7176711203835224 3.8656893643465904 1.7176711203835224 Q 3.873346502130681 1.7176711203835224 3.8800048828124996 1.7228313654119316 Q 3.886663263494318 1.7279916104403408 3.886163884943181 1.7403096147017043 Q 3.885664506392045 1.7526276189630678 3.8851651278409087 1.7646127041903408 Q 3.8846657492897725 1.7765977894176133 3.884166370738636 1.7905803888494316 Q 3.8836669921874996 1.8045629882812497 3.883500532670454 1.8227070756392043 M 4.019997336647727 1.7186698774857954 Q 4.0403053977272725 1.7186698774857954 4.0403053977272725 1.7476338334517043 Q 4.0403053977272725 1.7869182794744316 4.039806019176136 1.8303642134232951 Q 4.039306640625 1.873810147372159 4.038973721590909 1.9090995649857951 Q 4.038640802556818 1.9443889825994316 4.038307883522727 1.9913305664062497 Q 4.037642045454545 2.088875843394886 4.036976207386363 2.2306993519176133 Q 4.103227095170454 2.232031028053977 4.164151278409091 2.2260384854403408 Q 4.176136363636363 2.224706809303977 4.182794744318182 2.231032270951704 Q 4.189453125 2.2373577325994316 4.189453125 2.2443490323153408 Q 4.189453125 2.2513403320312495 4.183460582386363 2.2565005770596587 Q 4.177468039772727 2.261660822088068 4.165815873579545 2.260994984019886 Q 4.127863103693182 2.257998712713068 4.084084250710227 2.2596633078835224 Q 4.0403053977272725 2.261327903053977 4.031316583806818 2.2626595791903408 Q 4.022327769886363 2.263991255326704 4.018166281960227 2.263158957741477 Q 4.014004794034091 2.2623266601562495 4.010675603693182 2.2596633078835224 Q 4.003351384943182 2.254003684303977 4.004017223011363 2.243017356178977 Q 4.008012251420454 2.165114302201704 4.008012251420454 2.039437366832386 Q 4.008012251420454 1.9137604314630678 4.007845791903409 1.8839641779119316 Q 4.007679332386363 1.8541679243607951 4.007013494318182 1.829198996803977 Q 4.0056818181818175 1.7795940607244316 4.001353870738636 1.7399766956676133 Q 4.000355113636363 1.7293232865767043 4.00634765625 1.7239965820312497 Q 4.012340198863636 1.7186698774857954 4.019997336647727 1.7186698774857954 M 4.291492808948863 2.0768907581676133 L 4.292158647017046 2.195077015269886 Q 4.292158647017046 2.2110571289062495 4.292158647017046 2.2223763760653408 Q 4.292491566051137 2.227370161576704 4.292491566051137 2.231032270951704 Q 4.376387162642046 2.231032270951704 4.404019442471591 2.228368918678977 Q 4.432650479403409 2.2253726473721587 4.437311345880682 2.2267043235085224 Q 4.441972212357955 2.228035999644886 4.445301402698863 2.231032270951704 Q 4.451959783380682 2.2370248135653408 4.451959783380682 2.2441825727982954 Q 4.451959783380682 2.2513403320312495 4.445634321732955 2.2565005770596587 Q 4.4393088600852275 2.261660822088068 4.427989612926137 2.260994984019886 Q 4.3733908913352275 2.256667036576704 4.3294455788352275 2.259496848366477 Q 4.2855002663352275 2.2623266601562495 4.2801735617897725 2.263158957741477 Q 4.274846857244318 2.263991255326704 4.270685369318182 2.263158957741477 Q 4.266523881392046 2.2623266601562495 4.263194691051137 2.2596633078835224 Q 4.255537553267046 2.254003684303977 4.2562033913352275 2.243017356178977 Q 4.261197176846591 2.146803755326704 4.261197176846591 2.0301156338778408 Q 4.261197176846591 1.913427512428977 4.261363636363637 1.8832983398437497 Q 4.261530095880682 1.8531691672585224 4.261530095880682 1.8282002397017043 Q 4.2608642578125 1.7746002752130678 4.259199662642046 1.7524611594460224 Q 4.257535067471591 1.730322043678977 4.2600319602272725 1.7259940962357954 Q 4.262528852982955 1.7216661487926133 4.266190962357955 1.7196686345880678 Q 4.271184747869318 1.7173382013494316 4.278841885653409 1.7186698774857954 Q 4.2928244850852275 1.7210003107244316 4.3157958984375 1.7210003107244316 Q 4.360074129971591 1.7210003107244316 4.376220703125 1.7191692560369316 Q 4.392367276278409 1.7173382013494316 4.397028142755682 1.7188363370028408 Q 4.401689009232955 1.7203344726562497 4.4046852805397725 1.722997824928977 Q 4.411343661221591 1.7283245294744316 4.411343661221591 1.7359816672585224 Q 4.411343661221591 1.7436388050426133 4.405351118607955 1.748632590553977 Q 4.399358575994318 1.7536263760653408 4.3890380859375 1.7531269975142043 Q 4.378717595880682 1.7526276189630678 4.3670654296875 1.7517953213778408 Q 4.355413263494318 1.7509630237926133 4.342096502130682 1.7502971857244316 Q 4.314131303267046 1.7492984286221587 4.293490323153409 1.7509630237926133 Q 4.293490323153409 1.7799269797585224 4.293157404119318 1.8085580166903408 Q 4.2928244850852275 1.8425157581676133 4.292491566051137 1.877472256747159 Q 4.291492808948863 1.9713554243607951 4.291492808948863 2.015966574928977 Q 4.3331076882102275 2.015966574928977 4.352749911221591 2.0139690607244316 Q 4.374056729403409 2.0116386274857954 4.379549893465909 2.015966574928977 Q 4.385043057528409 2.0202945223721587 4.385043057528409 2.0276187411221587 Q 4.385043057528409 2.0459292879971587 4.350752397017046 2.045263449928977 Q 4.343761097301137 2.044930530894886 4.338101473721591 2.044930530894886 L 4.3111350319602275 2.0445976118607954 L 4.291492808948863 2.0445976118607954 L 4.291492808948863 2.0768907581676133" fill="#3361e1" fill-rule="nonzero"></path></g><g clip-path="url(#SvgjsClipPath1002)"><g clip-path="url(#a55c4c6fd-d6fe-4c63-8cad-278aa04f8b9195afd9dc-8d47-424c-be5f-52791777d0ec)"><path d=" M -2.761385958022559 1.6121731871700888 C -2.751730748870712 1.6040340852404327 -2.7181370046316404 1.5476987326684983 -2.6313199173819743 1.486336287728247 C -2.547774429927562 1.4249738427879957 -2.4111252921379904 1.3585843054794273 -2.2699677302403254 1.3306560145443325 C -2.129249041485926 1.2987778653198456 -1.983982031064954 1.3053609624688323 -1.8911404124850029 1.3298580633747583 C -1.7953862721361065 1.3526794668245787 -1.7520974211867093 1.3934148740313386 -1.7490652067423273 1.3907018400547866 C -1.7534539381749852 1.393215386238945 -1.7855315751918657 1.3434631308159974 -1.8776949352776786 1.3062786063138425 C -1.9663074126588869 1.267937052615805 -2.1150455106675063 1.2421233322800818 -2.2716035301379525 1.2658224820164337 C -2.4264858521522927 1.2840157686827238 -2.5893077883038957 1.3516820278626112 -2.689091582059142 1.4204654186799017 C -2.793104517013131 1.4886902436784906 -2.8341192071292416 1.5580322003144833 -2.8443728796582697 1.5673283314400221 C -2.87274004373663 1.6109363628572488 -2.8681518245115787 1.6551428576516563 -2.8451708308278434 1.6623244181778234 C -2.8220302469101934 1.6696256713794266 -2.7881572197617714 1.6455674436167664 -2.761385958022559 1.6121731871700888" fill="#51a8db" transform="matrix(1,0,0,1,0,0)" fill-rule="nonzero"></path></g><g clip-path="url(#a55c4c6fd-d6fe-4c63-8cad-278aa04f8b9195afd9dc-8d47-424c-be5f-52791777d0ec)"><path d=" M -1.0617898643881216 1.8932115890941006 C -1.0646225910401097 1.8855512578661888 -1.065819517794471 1.8434593336711529 -1.0950245306008843 1.7818575033800295 C -1.1225139483927136 1.7212531120508734 -1.178131144912031 1.6410989170671513 -1.2484306429515126 1.581092989115176 C -1.3170943410933675 1.519012388122308 -1.4005201358723438 1.4770401566027083 -1.4601669857980104 1.4615599039129699 C -1.52097086491956 1.444244363533211 -1.5579559016293212 1.4534208019833137 -1.5588336479158527 1.450947153357634 C -1.5571579504597473 1.453779880009622 -1.5235642062206758 1.4360254664865975 -1.4602866784734465 1.4441645684162538 C -1.3986050530653658 1.4505481777728468 -1.3072396441491267 1.4828253025821208 -1.2270854491654044 1.5453447767182544 C -1.1460934054536294 1.6041936754743473 -1.0762327805574134 1.6932450259988212 -1.042000675382683 1.7631056508950371 C -1.0052151264653153 1.8340435098701782 -1.0040979948279114 1.8857108481001037 -1.001225370617444 1.8941691304975896 C -0.9990709024595943 1.9274835918273099 -1.0155485941113 1.9508236635373535 -1.0306697687747302 1.947591961300578 C -1.045950533672075 1.9444400541807603 -1.0573213378385065 1.9203020313011425 -1.0617898643881216 1.8932115890941006" fill="#000000" transform="matrix(1,0,0,1,0,0)" fill-rule="nonzero"></path></g><g clip-path="url(#a55c4c6fd-d6fe-4c63-8cad-278aa04f8b9195afd9dc-8d47-424c-be5f-52791777d0ec)"><path d=" M -0.8299052545098764 0.9551800917012212 C -0.8392811807523728 0.9552997843766573 -0.8856022461461519 0.9398993268038764 -0.9642004363492043 0.9475197604733094 C -1.0410830315376725 0.9535841893620729 -1.150202853976936 0.9825498168176141 -1.2432439603492804 1.0354140818019009 C -1.337960764177731 1.0858046981605078 -1.416519056822305 1.1600939520478601 -1.4568953860027563 1.2189428508039528 C -1.499705466250409 1.2783104178202689 -1.5042936854754603 1.3222376297053253 -1.5073258999198418 1.3221977321468465 C -1.5036154269813222 1.3214795760942297 -1.5097197534285642 1.2779114422354818 -1.4758866238386208 1.21224006097953 C -1.4446468355497932 1.1475661186855461 -1.37346959122378 1.0607889289943584 -1.2738453877024487 0.9981497621827884 C -1.177811964444201 0.9331167418624962 -1.0532916844321567 0.8921020517463855 -0.9637615632059386 0.8824069450360597 C -0.8720769738218697 0.8702780872585327 -0.8153027481066699 0.8893890177698334 -0.8050091780191635 0.8896683006791843 C -0.7678246535170086 0.9003608463514777 -0.7489930059150591 0.9275310836754773 -0.7583689321575551 0.9427320534558646 C -0.7678645510754873 0.9580926134701668 -0.7986255686625703 0.9609652376806337 -0.8299052545098764 0.9551800917012212" fill="#51a8db" transform="matrix(1,0,0,1,0,0)" fill-rule="nonzero"></path></g><g clip-path="url(#a55c4c6fd-d6fe-4c63-8cad-278aa04f8b9195afd9dc-8d47-424c-be5f-52791777d0ec)"><path d=" M -2.358101436919789 1.0730773770058004 C -2.351199159302973 1.0724789136286197 -2.3186826491428265 1.0577966121084557 -2.260831189348701 1.0575173291991045 C -2.2043362465428524 1.0561608122108286 -2.122705841895418 1.069167416274887 -2.0510099293091812 1.1007263850315443 C -1.9782766802024987 1.1304101685397023 -1.9155178207154928 1.178646316740459 -1.8817644862425065 1.218543875219166 C -1.8461359665210213 1.2585611263733092 -1.8395528693720347 1.2902397878054024 -1.837318606097227 1.2899605048960514 C -1.8401114351907366 1.289761017103658 -1.8388746108778966 1.2575636874113414 -1.8683988041521395 1.2122001634210515 C -1.8959680170609263 1.1674351028079424 -1.9542982475567956 1.1095437454553385 -2.031500023213094 1.0712819868742587 C -2.1063079453606695 1.0311051454862006 -2.200027310227152 1.010518005311188 -2.2659779743924546 1.0100791321679221 C -2.3336841311308203 1.0080842542439867 -2.3736215871680058 1.0262376433517983 -2.381122328162003 1.0271951847552874 C -2.4073350240825135 1.0377680377521448 -2.419064906275253 1.0589536413043381 -2.4110853945795117 1.0693270065088019 C -2.403026087766813 1.079820064388702 -2.3804839672263434 1.0796205765963083 -2.358101436919789 1.0730773770058004" fill="#000000" transform="matrix(1,0,0,1,0,0)" fill-rule="nonzero"></path></g><g clip-path="url(#a55c4c6fd-d6fe-4c63-8cad-278aa04f8b9195afd9dc-8d47-424c-be5f-52791777d0ec)"><path d=" M -2.866915000198739 0.9213070645527991 C -2.851913518210745 0.9163597673014393 -2.7798186300397214 0.8589471806505801 -2.6535827550130926 0.8317370457681019 C -2.5304189919893245 0.8022926476108162 -2.353034446992993 0.8030905987803904 -2.198630895680397 0.8626177560306212 C -2.0418733884175575 0.9160405868336097 -1.9080569772799743 1.0281926237172552 -1.8369595280709188 1.1291733442268623 C -1.761912220572471 1.229675294034725 -1.749543977444072 1.31900592746855 -1.7446764753096697 1.317250434895487 C -1.7507808017569118 1.3178488982726675 -1.7459531971809885 1.2233714797950894 -1.807395437238197 1.1046363457624575 C -1.8646484336551414 0.9866991628993997 -1.9881313771467395 0.8444244693643307 -2.154185015535118 0.7679408497606495 C -2.3147327908534345 0.6847145427740667 -2.517970953743968 0.6672394121603931 -2.661841549618185 0.6959257567065834 C -2.8095024135478797 0.7208218331972966 -2.8977558129027794 0.791839487289395 -2.9141537094375276 0.7980236088535945 C -2.9721647594655676 0.8407937915427685 -2.9991355089971736 0.9078615873454747 -2.982338636877638 0.9344333612922937 C -2.965461969641145 0.9613243157069422 -2.9161086898029844 0.9505120773592126 -2.866915000198739 0.9213070645527991" fill="#51a8db" transform="matrix(1,0,0,1,0,0)" fill-rule="nonzero"></path></g><g clip-path="url(#a55c4c6fd-d6fe-4c63-8cad-278aa04f8b9195afd9dc-8d47-424c-be5f-52791777d0ec)"><path d=" M -0.7779187358121216 1.4345093592644065 C -0.7846215256365441 1.4272879011797606 -0.8084004704898535 1.3721893729206662 -0.8687255789096584 1.3202028542229112 C -0.9268563216131347 1.2677375648234115 -1.021533227883106 1.2184241825437296 -1.1189231681296299 1.211282519576041 C -1.215954030349845 1.1997521251756949 -1.315737824105091 1.2303934500873417 -1.3792547372031927 1.2718071157882396 C -1.4447665282252296 1.3118642645008611 -1.4740114385901217 1.362693754002734 -1.4761659067479718 1.3602201053770542 C -1.47313369230359 1.362254880859468 -1.4516289082835672 1.3035655723372903 -1.3887902536796035 1.2486266343121106 C -1.3283454525843625 1.1929695402343146 -1.2264071906712664 1.1411426117704744 -1.1185640901033214 1.1412623044459105 C -1.011878018731259 1.13571654381737 -0.8992073135873904 1.182157301886585 -0.8298653569513981 1.2399688641222315 C -0.7575310834295022 1.2965436020450378 -0.7286053535324397 1.3644891441342757 -0.7214237930062724 1.3728277338563255 C -0.7013952186499615 1.415119145843755 -0.7039885599510773 1.4634350891614691 -0.7197879931086453 1.474885688444858 C -0.7355874262662132 1.4865357755206405 -0.75912698576865 1.4661082255795426 -0.7779187358121216 1.4345093592644065" fill="#000000" transform="matrix(1,0,0,1,0,0)" fill-rule="nonzero"></path></g><g clip-path="url(#a55c4c6fd-d6fe-4c63-8cad-278aa04f8b9195afd9dc-8d47-424c-be5f-52791777d0ec)"><path d=" M -0.5196618397794515 0.8158977150520551 C -0.534982502235275 0.8121473445550567 -0.6111469413711261 0.7602406209742589 -0.7390984114123396 0.7426856952436278 C -0.8641373596846074 0.7225773257703595 -1.0409633388622364 0.7367409590303005 -1.1904195929234724 0.8076788180054414 C -1.3427484711951756 0.8727517358842125 -1.4677076243504859 0.994678674595141 -1.5310250496561937 1.1006864874730653 C -1.5983322308097725 1.206534710117075 -1.60395778655527 1.2965834996035166 -1.6089050838066297 1.2951870850567617 C -1.6028007573593874 1.2952668801737193 -1.6146503322275634 1.2015076177487578 -1.5623446330619788 1.0784635474004256 C -1.5141084848612218 0.9565366086894971 -1.4017170626267044 0.8053647596136765 -1.241927340919483 0.7165926919985535 C -1.0880424578671106 0.6215168101437948 -0.8867193777835554 0.5888407097497338 -0.7410932893362747 0.6066350208312371 C -0.5919562157428682 0.6203198833894334 -0.498635826461173 0.6845150549816731 -0.48183895434163704 0.6894224546745541 C -0.420715894752258 0.7277241108141127 -0.3888377455277712 0.7925177457835328 -0.403559944606414 0.8203263440431916 C -0.41836193880201433 0.8484142252122012 -0.4683934771343128 0.8413523573614701 -0.5196618397794515 0.8158977150520551" fill="#000000" transform="matrix(1,0,0,1,0,0)" fill-rule="nonzero"></path></g><g clip-path="url(#a55c4c6fd-d6fe-4c63-8cad-278aa04f8b9195afd9dc-8d47-424c-be5f-52791777d0ec)"><path d=" M -2.0941790875831425 0.25290326735902124 C -2.088912609863953 0.2637554032652295 -2.031061150069828 0.3196119851354193 -1.9673447491793332 0.4093415941540312 C -1.902670806885349 0.49835304712002637 -1.8320920259365165 0.6212375272344439 -1.7799858145633252 0.7496677679774015 C -1.7268821642281664 0.8776990331355722 -1.6923308785856062 1.011276058922283 -1.6768107283373892 1.112974935484507 C -1.6601734464517683 1.2145541193712952 -1.662686992635927 1.2842950515920748 -1.6594153928406727 1.2834971004225009 C -1.6623279146096186 1.2839758711242453 -1.6539095297706112 1.2129183194736681 -1.6592957001652366 1.1072695846220522 C -1.6637642267148518 1.0017006448873937 -1.681997410939621 0.8615405219516961 -1.7170673648424044 0.7249312817206034 C -1.7512196749001774 0.5880427585801596 -1.8021688570774865 0.454705118144321 -1.8514822393571682 0.35655712428670194 C -1.899838080233361 0.2577707694934235 -1.9464783260949694 0.1942139588368433 -1.9516650086972012 0.1832820278136776 C -1.9827452067521139 0.1432248791010558 -2.042511749353217 0.12870216781480645 -2.082568898065839 0.14889033240503216 C -2.1226260467784606 0.16919818967069405 -2.12665570018481 0.2148808941288135 -2.0941790875831425 0.25290326735902124" fill="#51a8db" transform="matrix(1,0,0,1,0,0)" fill-rule="nonzero"></path></g><g clip-path="url(#a55c4c6fd-d6fe-4c63-8cad-278aa04f8b9195afd9dc-8d47-424c-be5f-52791777d0ec)"><path d=" M -2.229990376644661 0.6073531768838542 C -2.224404718457642 0.6127393472784796 -2.177325599452768 0.6334860776874072 -2.1191948567492918 0.6732240459321994 C -2.0606651384610286 0.7123236532413322 -1.9911236940326424 0.7704942935032869 -1.9314369465484966 0.8360459820838024 C -1.8711916332456493 0.9011587975210522 -1.820840914445521 0.9737324563938201 -1.7890425603379918 1.031344530837073 C -1.756605845294803 1.088677322370975 -1.7426416998272556 1.131128324592319 -1.7408463096957136 1.129931397837958 C -1.7424821095933407 1.1308091441244894 -1.7531746552656342 1.0862834688622527 -1.7797863267709317 1.0240831751939483 C -1.8058394324575273 0.9616434961747717 -1.8478116639771272 0.8815291987495284 -1.8990800266222656 0.8073197399791333 C -1.9498696185656594 0.7326714080654727 -2.0099553416345923 0.6639279148066606 -2.061303499396688 0.6158912543982974 C -2.112212784015518 0.5672960281712323 -2.154264810652075 0.539447532353095 -2.1598105712806155 0.5340613619584694 C -2.1873797841894023 0.5168655142541467 -2.226439493940056 0.5213739383622406 -2.2459892975946225 0.5423600541220405 C -2.2655789988076678 0.563386067440319 -2.2578787700212772 0.5917532315186796 -2.229990376644661 0.6073531768838542" fill="#000000" transform="matrix(1,0,0,1,0,0)" fill-rule="nonzero"></path></g><g clip-path="url(#a55c4c6fd-d6fe-4c63-8cad-278aa04f8b9195afd9dc-8d47-424c-be5f-52791777d0ec)"><path d=" M -2.602473982601869 1.739725681626515 C -2.5970878122072434 1.7356960282201657 -2.572949789327626 1.698072630574745 -2.530977557808026 1.6535868528709867 C -2.48952399454865 1.608622304465484 -2.430236222649291 1.5568352735601223 -2.365881460823137 1.5144640664557356 C -2.3018857770232906 1.4716140886496043 -2.2328231032966492 1.4382198322029265 -2.179081092025831 1.4187099261068388 C -2.1254986709889274 1.3986015566335706 -2.0872369124078474 1.392377537510892 -2.0880747611359003 1.3906619424963078 C -2.0874762977587196 1.3921780497184986 -2.1271344708865545 1.3953299568383166 -2.1841081843941477 1.4097728730076085 C -2.253734385992069 1.4273471742096848 -2.321430864800019 1.4518328502563116 -2.386189318088797 1.482865200140599 C -2.45712717706394 1.5163392517042347 -2.524194972866646 1.558630663691664 -2.572351325950445 1.5961742662201273 C -2.6209066546190316 1.633239098046846 -2.6504707454517535 1.665635915531556 -2.6558968134048575 1.6696256713794269 C -2.674369382980499 1.6909309676070563 -2.6757657975272537 1.7250832776648297 -2.6604052375129514 1.7447128764363533 C -2.645004779940171 1.7643424752078771 -2.619629932747713 1.7615496461143678 -2.602473982601869 1.739725681626515" fill="#000000" transform="matrix(1,0,0,1,0,0)" fill-rule="nonzero"></path></g><g clip-path="url(#a55c4c6fd-d6fe-4c63-8cad-278aa04f8b9195afd9dc-8d47-424c-be5f-52791777d0ec)"><path d=" M -2.126775392860246 2.060382359119883 C -2.1226260467784606 2.0537992619708962 -2.1120132962231244 2.0034086456122893 -2.085122341808476 1.9383756252919973 C -2.058869748329487 1.873023424503875 -2.016259155874228 1.792988922195589 -1.9643923298519088 1.7211334193754377 C -1.9130441720898128 1.648799145853542 -1.8523998832021784 1.5846039742613023 -1.8025678326622734 1.5415944062212563 C -1.7531347577071554 1.498066169920987 -1.714513921099767 1.4756836396144324 -1.7160699258804366 1.4741675323922419 C -1.714793204009118 1.4755639469389963 -1.7561669721515372 1.4952334432689989 -1.8116245784369398 1.5340537676687807 C -1.8673215700732146 1.5723554238083393 -1.9367832193846437 1.6302068836024644 -1.9988638203775115 1.6956787770660227 C -2.0614630896306028 1.7607516949447937 -2.1166813105651334 1.8334849440514764 -2.1531077814561925 1.8935307695619303 C -2.1901726132829116 1.9533372097215123 -2.208764875533989 2.000256738492472 -2.212954119174253 2.006760040524501 C -2.2240456404313336 2.037241775202233 -2.211637499744456 2.0745858899383025 -2.187060603721572 2.0894277816923816 C -2.1624039125817314 2.1042696734464608 -2.1362710117781782 2.090903991356094 -2.126775392860246 2.060382359119883" fill="#51a8db" transform="matrix(1,0,0,1,0,0)" fill-rule="nonzero"></path></g><g clip-path="url(#a55c4c6fd-d6fe-4c63-8cad-278aa04f8b9195afd9dc-8d47-424c-be5f-52791777d0ec)"><path d=" M -1.2817052067227541 0.34694181269333374 C -1.2856151674536673 0.35360470495927776 -1.3253930332569381 0.38620101023638137 -1.370756557247228 0.4401026117411145 C -1.4166786470562196 0.4934456474271457 -1.4681464974937515 0.5681338768992852 -1.5080839535309374 0.6472906329210397 C -1.5486597705037823 0.7261681060334434 -1.5777051930762809 0.809554003253941 -1.5929061628566683 0.8735895846122657 C -1.6088252886896726 0.9375054732951542 -1.6108600641720865 0.9821109436743485 -1.6129746347714577 0.9814326851802104 C -1.6110994495229585 0.9818715583234763 -1.6127352494205855 0.9361489563068781 -1.6037582987628765 0.869041262945693 C -1.595379811482348 0.8019335695845078 -1.576428471204962 0.713560477554172 -1.546944175489198 0.6282594975266964 C -1.5179386504751777 0.5427590297068274 -1.478479965139737 0.4603705714482975 -1.4419338015732412 0.4003646434963223 C -1.4058664087084902 0.3399198424010812 -1.3727913327296422 0.3018176740539161 -1.3689611671156863 0.29511488422949333 C -1.3470175099523976 0.2712162467007479 -1.3080774928771792 0.2650321251365483 -1.2836601870882107 0.28003360712454206 C -1.2592029837407634 0.29507498667101467 -1.2590034959483698 0.324439589711343 -1.2817052067227541 0.34694181269333374" fill="#000000" transform="matrix(1,0,0,1,0,0)" fill-rule="nonzero"></path></g><g clip-path="url(#a55c4c6fd-d6fe-4c63-8cad-278aa04f8b9195afd9dc-8d47-424c-be5f-52791777d0ec)"><path d=" M -1.2889665623658788 2.1495534023197926 C -1.2916795963424308 2.142252149118189 -1.2922780597196113 2.090864093797615 -1.3060427173947653 2.0217615225124943 C -1.3190094239003451 1.9525791561104164 -1.345142324703898 1.8657221713022714 -1.3820076687382232 1.7851291031752834 C -1.4182346518368891 1.704176957021987 -1.4651541806078485 1.6293690348744112 -1.5056502024637364 1.5775022088520922 C -1.5456275560594004 1.52511671456955 -1.5791415051815143 1.4956324188537857 -1.5773461150499724 1.494475389657903 C -1.5788622222721636 1.4956324188537857 -1.5420766733547957 1.5229223488532209 -1.495316734817751 1.5718766531065944 C -1.4481578206959194 1.6203122890997448 -1.3909846193959325 1.6903724017883544 -1.3428282663121331 1.7666964311581206 C -1.2941931425265891 1.842741177618536 -1.2545748669572332 1.9250099432016299 -1.2305565367530518 1.99104040248389 C -1.205859948054732 2.056991066649193 -1.1967633047215869 2.1065837318382252 -1.1939704756280776 2.1138450874813497 C -1.1890231783767178 2.1458828269397516 -1.208493186914327 2.180114932114482 -1.2354639364459328 2.189810038824808 C -1.262514481094496 2.1995450430936128 -1.2855752698951888 2.181351756427322 -1.2889665623658788 2.1495534023197926" fill="#51a8db" transform="matrix(1,0,0,1,0,0)" fill-rule="nonzero"></path></g><g clip-path="url(#a55c4c6fd-d6fe-4c63-8cad-278aa04f8b9195afd9dc-8d47-424c-be5f-52791777d0ec)"><path d=" M -2.414077711465415 1.88798500893339 C -2.407095638731641 1.8824392483048498 -2.3766936991708665 1.8316895539199345 -2.322991585458527 1.7711250601492572 C -2.2699278326818466 1.7100020005598782 -2.1935639057536016 1.6391040391432161 -2.1102179060915827 1.5804546281795169 C -2.0272309844558722 1.521206753838637 -1.937261990086388 1.4742473275091987 -1.8669225944884278 1.446279139015625 C -1.7968225842413394 1.4175129993524775 -1.7464718654412115 1.4077380975251945 -1.7475889970786151 1.4055038342503867 C -1.7467910459090412 1.4075386097328006 -1.7990967450746258 1.4132838581537346 -1.87394456478068 1.4346689494983216 C -1.9488322820452133 1.4553358847902917 -2.046222222291737 1.4916825605643937 -2.1383057872605926 1.5394798356218846 C -2.2307085326972778 1.5865988521852377 -2.3178448004147736 1.6452881607074157 -2.380005196524599 1.6968358062619049 C -2.442803953570084 1.7478647835561711 -2.4805869414494195 1.7918318929997061 -2.487569014183193 1.7973776536282466 C -2.5111085736856302 1.826303383525309 -2.5116272419458534 1.8715472148401626 -2.4905214335106174 1.8969220620326206 C -2.469335829958424 1.9222171141081206 -2.4359016759532675 1.9175490997661118 -2.414077711465415 1.88798500893339" fill="#000000" transform="matrix(1,0,0,1,0,0)" fill-rule="nonzero"></path></g><g clip-path="url(#a55c4c6fd-d6fe-4c63-8cad-278aa04f8b9195afd9dc-8d47-424c-be5f-52791777d0ec)"><path d=" M -2.623021225218403 1.3044034210653432 C -2.6122488844291523 1.2979001190333141 -2.5648505849564485 1.2512598731717057 -2.4970646331011253 1.2124395487719237 C -2.4329891541843223 1.1726616829686531 -2.348565920443378 1.1407436361856873 -2.3491244862620797 1.1419405629400485 C -2.348127047300112 1.143097592135931 -2.4264060570353356 1.1341605390367007 -2.5126645784662998 1.158777332618063 C -2.5983246365200836 1.1785665216235015 -2.69192430871113 1.231869659751054 -2.7068459955821664 1.2466716539466542 C -2.740240252028844 1.2742807644139196 -2.7416765641340777 1.3063982989892788 -2.713189707380281 1.3152954545300302 C -2.684702850626484 1.3242724051877395 -2.645363857966479 1.3185670543252843 -2.623021225218403 1.3044034210653432" fill="#000000" transform="matrix(1,0,0,1,0,0)" fill-rule="nonzero"></path></g><g clip-path="url(#a55c4c6fd-d6fe-4c63-8cad-278aa04f8b9195afd9dc-8d47-424c-be5f-52791777d0ec)"><path d=" M -1.726642778877294 1.8123392380577616 C -1.7238898473422632 1.800010892487841 -1.724887286304231 1.7335016625038364 -1.7061753313777173 1.6577361989527721 C -1.6906950786879789 1.5838858182086855 -1.6554655345512808 1.5008191014560177 -1.6550266614080151 1.502016028210379 C -1.6534706566273454 1.5021357208858148 -1.7140351503980225 1.5526061323613791 -1.7557679965667499 1.6319623761755273 C -1.8006527498552953 1.7075682494926772 -1.826705855541891 1.8120599551484107 -1.826266982398625 1.833125866025168 C -1.829418889518443 1.8763349218576075 -1.8071560518873246 1.8995154033337363 -1.7810630486422503 1.8850724871644444 C -1.7549301478386972 1.8706295709951524 -1.731829461479526 1.8382327535104424 -1.726642778877294 1.8123392380577616" fill="#000000" transform="matrix(1,0,0,1,0,0)" fill-rule="nonzero"></path></g><g clip-path="url(#a55c4c6fd-d6fe-4c63-8cad-278aa04f8b9195afd9dc-8d47-424c-be5f-52791777d0ec)"><path d=" M -1.084571370279463 1.4286843157265154 C -1.0969396134078624 1.4262106671008357 -1.1572248242691885 1.3982025810487835 -1.234107419457657 1.384477820932108 C -1.307838107526307 1.3685985926575828 -1.3980464872466636 1.3669228952014771 -1.397168740960132 1.3678405390464872 C -1.397727306778834 1.3692768511517208 -1.3269889355960867 1.334526077716767 -1.2374588143698682 1.328661136620397 C -1.1501629564184574 1.3184872592083268 -1.0440753484235756 1.3371992141348406 -1.0250043154707535 1.3460963696755919 C -0.9842689082639939 1.3608584663127135 -0.9721799480449458 1.3906619424963078 -0.9959588928982552 1.408615843811726 C -1.0198176328685218 1.4266096426856227 -1.0587576499437397 1.4345492568228853 -1.084571370279463 1.4286843157265154" fill="#51a8db" transform="matrix(1,0,0,1,0,0)" fill-rule="nonzero"></path></g><g clip-path="url(#a55c4c6fd-d6fe-4c63-8cad-278aa04f8b9195afd9dc-8d47-424c-be5f-52791777d0ec)"><path d=" M -1.2660254662406225 0.6158513568398187 C -1.2748827242228955 0.6248283074975278 -1.3315372572626594 0.6596987736079176 -1.3853989612089137 0.7162336139722454 C -1.4393404602721254 0.7688983911641386 -1.4904492326833492 0.8433073377269271 -1.489252305928988 0.8429881572590975 C -1.488294764525499 0.8442249815719374 -1.4782804773473435 0.7661055620706291 -1.4337548020851065 0.6882255279201931 C -1.3941365265157506 0.6097869279510552 -1.3200068628623132 0.5316276108912683 -1.3020130639884162 0.520655782309624 C -1.2672223929949837 0.4948021644154218 -1.2357033217968052 0.5011458762135362 -1.2339079316652635 0.5308695572801729 C -1.2320327464167642 0.5607129310222456 -1.2469145357293219 0.5975782750565709 -1.2660254662406225 0.6158513568398187" fill="#51a8db" transform="matrix(1,0,0,1,0,0)" fill-rule="nonzero"></path></g><g clip-path="url(#a55c4c6fd-d6fe-4c63-8cad-278aa04f8b9195afd9dc-8d47-424c-be5f-52791777d0ec)"><path d=" M -1.0619494546220363 0.37586754259039623 C -1.0302193237533244 0.37586754259039623 -1.0044969704126983 0.35014518924977006 -1.0044969704126983 0.3184150583810582 C -1.0044969704126983 0.2866849275123464 -1.0302193237533244 0.2609625741717202 -1.0619494546220363 0.2609625741717202 C -1.0936795854907482 0.2609625741717202 -1.1194019388313743 0.2866849275123464 -1.1194019388313743 0.3184150583810582 C -1.1194019388313743 0.35014518924977006 -1.0936795854907482 0.37586754259039623 -1.0619494546220363 0.37586754259039623" fill="#000000" transform="matrix(1,0,0,1,0,0)" fill-rule="nonzero"></path></g><g clip-path="url(#a55c4c6fd-d6fe-4c63-8cad-278aa04f8b9195afd9dc-8d47-424c-be5f-52791777d0ec)"><path d=" M -2.9582804091149777 1.4420101002584034 C -2.926550278246266 1.4420101002584034 -2.9008279249056397 1.4162877469177773 -2.9008279249056397 1.3845576160490656 C -2.9008279249056397 1.3528274851803535 -2.926550278246266 1.3271051318397273 -2.9582804091149777 1.3271051318397273 C -2.9900105399836896 1.3271051318397273 -3.0157328933243157 1.3528274851803535 -3.0157328933243157 1.3845576160490654 C -3.0157328933243157 1.4162877469177773 -2.9900105399836896 1.4420101002584034 -2.9582804091149777 1.4420101002584034" fill="#000000" transform="matrix(1,0,0,1,0,0)" fill-rule="nonzero"></path></g><g clip-path="url(#a55c4c6fd-d6fe-4c63-8cad-278aa04f8b9195afd9dc-8d47-424c-be5f-52791777d0ec)"><path d=" M -0.7447239671578374 0.49077251100907204 C -0.712993836289125 0.49077251100907204 -0.6872714829484989 0.46505015766844593 -0.6872714829484989 0.433320026799734 C -0.6872714829484989 0.40158989593102223 -0.712993836289125 0.375867542590396 -0.7447239671578374 0.375867542590396 C -0.7764540980265493 0.375867542590396 -0.8021764513671754 0.40158989593102223 -0.8021764513671754 0.433320026799734 C -0.8021764513671754 0.46505015766844593 -0.7764540980265493 0.49077251100907204 -0.7447239671578374 0.49077251100907204" fill="#000000" transform="matrix(1,0,0,1,0,0)" fill-rule="nonzero"></path></g><g clip-path="url(#a55c4c6fd-d6fe-4c63-8cad-278aa04f8b9195afd9dc-8d47-424c-be5f-52791777d0ec)"><path d=" M -0.8291472008987815 0.197286070839704 C -0.7974170700300691 0.197286070839704 -0.771694716689443 0.17156371749907787 -0.771694716689443 0.139833586630366 C -0.771694716689443 0.10810345576165417 -0.7974170700300691 0.08238110242102797 -0.8291472008987815 0.08238110242102797 C -0.8608773317674934 0.08238110242102797 -0.8865996851081195 0.10810345576165417 -0.8865996851081195 0.139833586630366 C -0.8865996851081195 0.17156371749907784 -0.8608773317674934 0.197286070839704 -0.8291472008987815 0.197286070839704" fill="#3361e1" transform="matrix(1,0,0,1,0,0)" fill-rule="nonzero"></path></g><g clip-path="url(#a55c4c6fd-d6fe-4c63-8cad-278aa04f8b9195afd9dc-8d47-424c-be5f-52791777d0ec)"><path d=" M -1.494518783648177 2.232340836163109 C -1.4627886527794651 2.232340836163109 -1.437066299438839 2.206618482822483 -1.437066299438839 2.174888351953771 C -1.437066299438839 2.14315822108506 -1.4627886527794651 2.117435867744434 -1.494518783648177 2.117435867744434 C -1.5262489145168887 2.117435867744434 -1.5519712678575148 2.14315822108506 -1.5519712678575148 2.174888351953771 C -1.5519712678575148 2.206618482822483 -1.5262489145168887 2.232340836163109 -1.494518783648177 2.232340836163109" fill="#3361e1" transform="matrix(1,0,0,1,0,0)" fill-rule="nonzero"></path></g><g clip-path="url(#a55c4c6fd-d6fe-4c63-8cad-278aa04f8b9195afd9dc-8d47-424c-be5f-52791777d0ec)"><path d=" M -2.4369390124737143 2.1924432776844025 C -2.4052088816050023 2.1924432776844025 -2.3794865282643762 2.1667209243437764 -2.3794865282643762 2.1349907934750645 C -2.3794865282643762 2.1032606626063535 -2.4052088816050023 2.0775383092657274 -2.4369390124737143 2.0775383092657274 C -2.4686691433424257 2.0775383092657274 -2.4943914966830523 2.1032606626063535 -2.4943914966830523 2.1349907934750645 C -2.4943914966830523 2.1667209243437764 -2.4686691433424257 2.1924432776844025 -2.4369390124737143 2.1924432776844025" fill="#3361e1" transform="matrix(1,0,0,1,0,0)" fill-rule="nonzero"></path></g><g clip-path="url(#a55c4c6fd-d6fe-4c63-8cad-278aa04f8b9195afd9dc-8d47-424c-be5f-52791777d0ec)"><path d=" M -0.8291472008987815 1.9133598561258478 C -0.7974170700300691 1.9133598561258478 -0.771694716689443 1.8876375027852217 -0.771694716689443 1.8559073719165098 C -0.771694716689443 1.8241772410477979 -0.7974170700300691 1.7984548877071718 -0.8291472008987815 1.7984548877071718 C -0.8608773317674934 1.7984548877071718 -0.8865996851081195 1.8241772410477979 -0.8865996851081195 1.8559073719165096 C -0.8865996851081195 1.8876375027852217 -0.8608773317674934 1.9133598561258478 -0.8291472008987815 1.9133598561258478" fill="#3361e1" transform="matrix(1,0,0,1,0,0)" fill-rule="nonzero"></path></g><g clip-path="url(#a55c4c6fd-d6fe-4c63-8cad-278aa04f8b9195afd9dc-8d47-424c-be5f-52791777d0ec)"><path d=" M -1.8083928762001646 2.3148090895385973 C -1.776662745331453 2.3148090895385973 -1.7509403919908268 2.289086736197971 -1.7509403919908268 2.2573566053292593 C -1.7509403919908268 2.2256264744605474 -1.776662745331453 2.1999041211199213 -1.8083928762001646 2.1999041211199213 C -1.8401230070688765 2.1999041211199213 -1.8658453604095027 2.2256264744605474 -1.8658453604095027 2.2573566053292593 C -1.8658453604095027 2.289086736197971 -1.8401230070688765 2.3148090895385973 -1.8083928762001646 2.3148090895385973" fill="#3361e1" transform="matrix(1,0,0,1,0,0)" fill-rule="nonzero"></path></g><g clip-path="url(#a55c4c6fd-d6fe-4c63-8cad-278aa04f8b9195afd9dc-8d47-424c-be5f-52791777d0ec)"><path d=" M -0.4910951879086971 1.1830350481731167 C -0.45936505703998476 1.1830350481731167 -0.43364270369935864 1.1573126948324906 -0.43364270369935864 1.1255825639637786 C -0.43364270369935864 1.0938524330950667 -0.45936505703998476 1.0681300797544406 -0.4910951879086971 1.0681300797544406 C -0.522825318777409 1.0681300797544406 -0.5485476721180351 1.0938524330950667 -0.5485476721180351 1.1255825639637784 C -0.5485476721180351 1.1573126948324906 -0.522825318777409 1.1830350481731167 -0.4910951879086971 1.1830350481731167" fill="#3361e1" transform="matrix(1,0,0,1,0,0)" fill-rule="nonzero"></path></g><g clip-path="url(#a55c4c6fd-d6fe-4c63-8cad-278aa04f8b9195afd9dc-8d47-424c-be5f-52791777d0ec)"><path d=" M -1.7982987939050519 0.05975918676360069 C -1.76656866303634 0.05975918676360069 -1.7408463096957139 0.03403683342297452 -1.7408463096957139 0.0023067025542626712 C -1.7408463096957139 -0.029423428314449177 -1.76656866303634 -0.055145781655075346 -1.7982987939050519 -0.055145781655075346 C -1.8300289247737636 -0.055145781655075346 -1.8557512781143897 -0.029423428314449177 -1.8557512781143897 0.0023067025542626643 C -1.8557512781143897 0.03403683342297452 -1.8300289247737636 0.059759186763600675 -1.7982987939050519 0.05975918676360069" fill="#3361e1" transform="matrix(1,0,0,1,0,0)" fill-rule="nonzero"></path></g><g clip-path="url(#a55c4c6fd-d6fe-4c63-8cad-278aa04f8b9195afd9dc-8d47-424c-be5f-52791777d0ec)"><path d=" M -1.6209142489087205 0.41887711063044225 C -1.5891841180400088 0.41887711063044225 -1.5634617646993827 0.3931547572898161 -1.5634617646993827 0.36142462642110423 C -1.5634617646993827 0.32969449555239244 -1.5891841180400088 0.3039721422117662 -1.6209142489087205 0.3039721422117662 C -1.6526443797774324 0.3039721422117662 -1.6783667331180585 0.32969449555239244 -1.6783667331180585 0.36142462642110423 C -1.6783667331180585 0.3931547572898161 -1.6526443797774324 0.41887711063044225 -1.6209142489087205 0.41887711063044225" fill="#000000" transform="matrix(1,0,0,1,0,0)" fill-rule="nonzero"></path></g><g clip-path="url(#a55c4c6fd-d6fe-4c63-8cad-278aa04f8b9195afd9dc-8d47-424c-be5f-52791777d0ec)"><path d=" M -0.9263775509113898 1.663641037607621 C -0.8946474200426779 1.663641037607621 -0.8689250667020518 1.6379186842669948 -0.8689250667020518 1.606188553398283 C -0.8689250667020518 1.5744584225295708 -0.8946474200426779 1.548736069188945 -0.9263775509113898 1.548736069188945 C -0.9581076817801017 1.548736069188945 -0.9838300351207279 1.5744584225295708 -0.9838300351207279 1.6061885533982827 C -0.9838300351207279 1.6379186842669948 -0.9581076817801017 1.663641037607621 -0.9263775509113898 1.663641037607621" fill="#000000" transform="matrix(1,0,0,1,0,0)" fill-rule="nonzero"></path></g><g clip-path="url(#a55c4c6fd-d6fe-4c63-8cad-278aa04f8b9195afd9dc-8d47-424c-be5f-52791777d0ec)"><path d=" M -1.5467047901383257 2.0282648245445234 C -1.5149746592696138 2.0282648245445234 -1.4892523059289877 2.0025424712038973 -1.4892523059289877 1.9708123403351856 C -1.4892523059289877 1.9390822094664737 -1.5149746592696138 1.9133598561258476 -1.5467047901383257 1.9133598561258476 C -1.5784349210070374 1.9133598561258476 -1.6041572743476635 1.9390822094664737 -1.6041572743476635 1.9708123403351856 C -1.6041572743476635 2.0025424712038973 -1.5784349210070374 2.0282648245445234 -1.5467047901383257 2.0282648245445234" fill="#000000" transform="matrix(1,0,0,1,0,0)" fill-rule="nonzero"></path></g><g clip-path="url(#a55c4c6fd-d6fe-4c63-8cad-278aa04f8b9195afd9dc-8d47-424c-be5f-52791777d0ec)"><path d=" M -1.4761659067479718 0.174664155182277 C -1.4444357758792599 0.174664155182277 -1.4187134225386338 0.14894180184165082 -1.4187134225386338 0.11721167097293897 C -1.4187134225386338 0.08548154010422712 -1.4444357758792599 0.05975918676360094 -1.4761659067479718 0.05975918676360094 C -1.5078960376166834 0.05975918676360094 -1.5336183909573096 0.08548154010422712 -1.5336183909573096 0.11721167097293897 C -1.5336183909573096 0.1489418018416508 -1.5078960376166834 0.174664155182277 -1.4761659067479718 0.174664155182277" fill="#000000" transform="matrix(1,0,0,1,0,0)" fill-rule="nonzero"></path></g><g clip-path="url(#a55c4c6fd-d6fe-4c63-8cad-278aa04f8b9195afd9dc-8d47-424c-be5f-52791777d0ec)"><path d=" M -0.5485476721180351 1.6594517939673565 C -0.5168175412493232 1.6594517939673565 -0.4910951879086971 1.6337294406267304 -0.4910951879086971 1.6019993097580187 C -0.4910951879086971 1.5702691788893066 -0.5168175412493232 1.5445468255486805 -0.5485476721180351 1.5445468255486805 C -0.580277802986747 1.5445468255486805 -0.6060001563273731 1.5702691788893066 -0.6060001563273731 1.6019993097580185 C -0.6060001563273731 1.6337294406267304 -0.580277802986747 1.6594517939673565 -0.5485476721180351 1.6594517939673565" fill="#000000" transform="matrix(1,0,0,1,0,0)" fill-rule="nonzero"></path></g><g clip-path="url(#a55c4c6fd-d6fe-4c63-8cad-278aa04f8b9195afd9dc-8d47-424c-be5f-52791777d0ec)"><path d=" M -2.6851018262112714 1.1002875118882787 C -2.6533716953425595 1.1002875118882787 -2.6276493420019333 1.0745651585476526 -2.6276493420019333 1.0428350276789407 C -2.6276493420019333 1.0111048968102287 -2.6533716953425595 0.9853825434696026 -2.6851018262112714 0.9853825434696026 C -2.716831957079983 0.9853825434696026 -2.7425543104206094 1.0111048968102287 -2.7425543104206094 1.0428350276789404 C -2.7425543104206094 1.0745651585476526 -2.7168319570799833 1.1002875118882787 -2.6851018262112714 1.1002875118882787" fill="#3361e1" transform="matrix(1,0,0,1,0,0)" fill-rule="nonzero"></path></g><g clip-path="url(#a55c4c6fd-d6fe-4c63-8cad-278aa04f8b9195afd9dc-8d47-424c-be5f-52791777d0ec)"><path d=" M -2.4135590432051917 0.41887711063044225 C -2.3818289123364798 0.41887711063044225 -2.3561065589958536 0.3931547572898161 -2.3561065589958536 0.36142462642110423 C -2.3561065589958536 0.32969449555239244 -2.3818289123364798 0.3039721422117662 -2.4135590432051917 0.3039721422117662 C -2.4452891740739036 0.3039721422117662 -2.4710115274145297 0.32969449555239244 -2.4710115274145297 0.36142462642110423 C -2.4710115274145297 0.3931547572898161 -2.4452891740739036 0.41887711063044225 -2.4135590432051917 0.41887711063044225" fill="#000000" transform="matrix(1,0,0,1,0,0)" fill-rule="nonzero"></path></g><g clip-path="url(#a55c4c6fd-d6fe-4c63-8cad-278aa04f8b9195afd9dc-8d47-424c-be5f-52791777d0ec)"><path d=" M -2.7043723469564864 0.4285323197822895 C -2.672642216087775 0.4285323197822895 -2.6469198627471484 0.40280996644166334 -2.6469198627471484 0.3710798355729515 C -2.6469198627471484 0.33934970470423964 -2.672642216087775 0.3136273513636134 -2.7043723469564864 0.3136273513636134 C -2.7361024778251983 0.3136273513636134 -2.7618248311658244 0.33934970470423964 -2.7618248311658244 0.3710798355729515 C -2.7618248311658244 0.40280996644166334 -2.7361024778251983 0.4285323197822895 -2.7043723469564864 0.4285323197822895" fill="#3361e1" transform="matrix(1,0,0,1,0,0)" fill-rule="nonzero"></path></g></g></g><defs><clipPath id="SvgjsClipPath1002"><path d=" M -3.0157328933243157 -0.055145781655074666 h 2.615732893324316 v 2.3699548711936718 h -2.615732893324316 Z"></path></clipPath><clipPath id="a55c4c6fd-d6fe-4c63-8cad-278aa04f8b9195afd9dc-8d47-424c-be5f-52791777d0ec"><path d=" M -3.0157328933243157 2.3148090895385973 L -0.40000906190180885 2.3148090895385973 L -0.40000906190180885 -0.05514578165507513 L -3.0157328933243157 -0.05514578165507513 Z"></path></clipPath></defs></svg>